SplineFontDB: 3.0
FontName: BohesionOne
FullName: Bohesion One
FamilyName: Bohesion One
Weight: Book
Copyright: Copyright (c) 2011 by vernon adams. All rights reserved.
Version: 0.000
ItalicAngle: 0
UnderlinePosition: 0
UnderlineWidth: 0
Ascent: 1638
Descent: 410
sfntRevision: 0x00000000
LayerCount: 2
Layer: 0 0 "Back"  1
Layer: 1 0 "Fore"  0
NeedsXUIDChange: 1
XUID: [1021 713 972677256 14346395]
FSType: 0
OS2Version: 2
OS2_WeightWidthSlopeOnly: 0
OS2_UseTypoMetrics: 1
CreationTime: 1304777160
ModificationTime: 1306065865
PfmFamily: 17
TTFWeight: 400
TTFWidth: 5
LineGap: 0
VLineGap: 0
Panose: 2 0 5 5 0 0 0 2 0 4
OS2TypoAscent: 726
OS2TypoAOffset: 1
OS2TypoDescent: -326
OS2TypoDOffset: 1
OS2TypoLinegap: 0
OS2WinAscent: 0
OS2WinAOffset: 1
OS2WinDescent: 650
OS2WinDOffset: 1
HheadAscent: 0
HheadAOffset: 1
HheadDescent: 85
HheadDOffset: 1
OS2SubXSize: 0
OS2SubYSize: 0
OS2SubXOff: 0
OS2SubYOff: 0
OS2SupXSize: 0
OS2SupYSize: 0
OS2SupXOff: 0
OS2SupYOff: 0
OS2StrikeYSize: 0
OS2StrikeYPos: 0
OS2Vendor: 'newt'
OS2CodePages: 00000001.00000000
OS2UnicodeRanges: 80000003.08000000.14000000.00000000
MarkAttachClasses: 1
DEI: 91125
ShortTable: maxp 16
  1
  0
  99
  112
  5
  0
  0
  1
  0
  0
  0
  0
  0
  0
  0
  0
EndShort
LangName: 1033 "" "" "Regular" "vernonadams: Bohesion One: 2011" "" "Version 0.000" "" "Bohesion One is a trademark of vernon adams." "vernon adams" "vernon adams" "Copyright (c) 2011 by vernon adams. All rights reserved." "" "" "" "" "" "" "" "Bohesion One" 
GaspTable: 3 8 2 16 1 65535 3
Encoding: UnicodeBmp
Compacted: 1
UnicodeInterp: none
NameList: Adobe Glyph List
DisplaySize: -72
AntiAlias: 1
FitToEm: 1
WinInfo: 0 18 7
BeginPrivate: 0
EndPrivate
BeginChars: 65540 99

StartChar: .notdef
Encoding: 65536 -1 0
Width: 1024
Flags: HW
LayerCount: 2
Fore
SplineSet
128 0 m 1
 128 2086 l 1
 896 2086 l 1
 896 0 l 1
 128 0 l 1
256 128 m 1
 768 128 l 1
 768 1958 l 1
 256 1958 l 1
 256 128 l 1
EndSplineSet
EndChar

StartChar: exclam
Encoding: 33 33 4
Width: 954
Flags: HW
LayerCount: 2
Fore
SplineSet
554 468 m 1
 528.486888608 471.189138924 499.393784998 481.434369167 472 486 c 1
 184 560 l 1
 266.528881376 775.950572935 344.33339226 992.468153828 412 1228 c 1
 438 1330 l 1
 486.146218968 1531.18241497 535.567329358 1732.63007468 594 1954 c 1
 731.636637173 1920.96720708 910.895990684 1928.98000194 1050 1900 c 1
 1042 1856 1023 1790.5 993 1703.5 c 128
 963 1616.5 920.666666667 1506.66666667 866 1374 c 1
 745.283569136 1067.94117023 641.270101648 782.473297319 554 468 c 1
438 -44 m 0
 438 -114.477624928 409.871234527 -172 340 -172 c 0
 275.921054775 -172 226.036688236 -138.678540159 176 -105 c 1
 87.0527832918 -95.8772085427 21.0982343085 -40.6133087843 -10.5 28 c 128
 -22.1666666667 53.3333333333 -28 81.6666666667 -28 113 c 0
 -28 173.666666667 -0.333333333333 225.666666667 55 269 c 1
 91 285.666666667 126.333333333 294 161 294 c 0
 254.522268762 294 320.535611316 234.56031859 362.5 176.5 c 128
 402.249057312 121.504728924 438 41.0552711875 438 -44 c 0
EndSplineSet
EndChar

StartChar: quotedbl
Encoding: 34 34 5
Width: 1320
Flags: HW
LayerCount: 2
Fore
SplineSet
938 902 m 1
 642 965 l 1
 616 884 l 1
 298 952 l 1
 376 1664 l 1
 689 1620 l 1
 696 1682 l 1
 1170 1616 l 1
 938 902 l 1
EndSplineSet
EndChar

StartChar: numbersign
Encoding: 35 35 6
Width: 1528
Flags: HW
LayerCount: 2
Fore
SplineSet
1296 42 m 1
 1229.21949877 53.1300835378 1162.73717458 61.1659279651 1096 74 c 1
 1080.6105533 20.1369365559 1074.66540311 -43.741420107 1064 -112 c 1
 940.956277323 -115.038116609 822.872046462 -116.750168774 696 -124 c 1
 725.333333333 -27.3333333333 747.333333333 54 762 120 c 1
 694.515166087 128.435604239 621.19987552 136.951732723 548 142 c 1
 531.691505845 53.9341315629 518.180300301 -35.762462461 502 -134 c 1
 472.8810564 -131.08810564 441.440674366 -130 408 -130 c 0
 315.87448825 -130 229.977521607 -136.095968809 134 -144 c 1
 162.605354219 -45.1815036085 192.145981448 56.1934118801 214 160 c 1
 170.761698817 160 136.591463493 162 90 162 c 1
 106 301.333333333 123.333333333 432 142 554 c 1
 196.127367508 541.509069037 244.487603199 534.6386176 292 526 c 1
 332 734 l 1
 268.149260075 734 212.267243756 737.608297265 142 742 c 1
 159.178232166 872.268260589 173.809546224 995.500147097 194 1128 c 1
 258.647051808 1121.53529482 324.750205637 1109.23330592 394 1100 c 1
 456 1504 l 1
 494.164326393 1502.68398875 532.808475145 1502 572 1502 c 0
 661.560129814 1502 745.25213538 1504.19652009 834 1508 c 1
 795.257876697 1365.35854602 767.974910563 1222.419461 730 1056 c 1
 798.350661062 1042.8556421 869.83096043 1036.79523686 940 1026 c 1
 964.666666667 1178.66666667 990.666666667 1344.66666667 1018 1524 c 1
 1060.6508583 1518.11712299 1105.24322917 1517 1156 1517 c 0
 1221.33333333 1517 1300 1520 1392 1526 c 1
 1352.21975278 1357.83804584 1316.26099322 1194.6229951 1274 1000 c 1
 1294.66666667 996 1331.33333333 994 1384 994 c 1
 1370.03353813 873.539266337 1361.20085006 752.01062571 1350 612 c 1
 1296.95621121 625.837510119 1252.04267305 637.99146539 1202 648 c 1
 1156 426 l 1
 1213.77005956 422.601761203 1269.97162518 420.276840511 1336 418 c 1
 1322.74627737 289.438890441 1309.55093139 169.378755071 1296 42 c 1
882 694 m 1
 666 762 l 1
 736 502 l 1
 766 468 l 1
 789.177597292 462.205600677 810.85058734 457.029882532 836 452 c 1
 882 694 l 1
EndSplineSet
EndChar

StartChar: dollar
Encoding: 36 36 7
Width: 1824
Flags: HW
LayerCount: 2
Fore
SplineSet
630 1342 m 1
 715.643279857 1382.44265993 805.488191156 1408 922 1408 c 0
 1039.33333333 1408 1141.33333333 1372.66666667 1228 1302 c 1
 1366 744 l 1
 1216 698.666666667 1051.33333333 658.666666667 872 624 c 1
 878.666666667 656.666666667 882 688.666666667 882 720 c 0
 882 776.556016692 863.74690764 808.71587907 816 818 c 1
 749.213017202 818 678.992328168 761.192839624 637 722 c 128
 590.061769222 678.190984607 529.22918243 607.50037831 526 530 c 1
 1122 616 l 1
 1172.9983941 542.335652961 1226.98913507 469.72980704 1280 394 c 1
 1217.84951783 284.561107476 1147.58216286 192.928157929 1060 108 c 1
 1152 -160 l 1
 896 -138 l 1
 864 -44 l 1
 840.666666667 -48.6666666667 824.333333333 -51 815 -51 c 0
 811 -51 808.666666667 -50.6666666667 808 -50 c 2
 880 -178 l 1
 656 -156 l 1
 618 -100 l 1
 470.178850234 -100 328.340709041 -76.2624792106 262 6 c 1
 350.794239802 103.118699783 439.447522972 196.809092792 544 282 c 1
 564.380681476 228.366627695 591.509080771 190 655 190 c 0
 748.535696549 190 816.538362926 241.922846827 844 306 c 128
 852 324.666666667 856 340.666666667 856 354 c 1
 594.739859619 335.242861716 350.598683451 315.438232825 92 294 c 1
 28 508 l 1
 65.2070417464 690.652750392 137.65043282 849.106720399 230 982 c 1
 184.693064772 1119.2533626 144.097093514 1242.42031319 98 1378 c 1
 180.273265949 1364.94075144 265.983304641 1344 360 1344 c 1
 372.263306383 1287.58879064 385.656564172 1225.63636898 400 1174 c 1
 421.240523274 1192.20616281 437.781267604 1208.25001565 460 1228 c 1
 380 1410 l 1
 602 1386 l 1
 630 1342 l 1
EndSplineSet
EndChar

StartChar: percent
Encoding: 37 37 8
Width: 2264
Flags: HW
LayerCount: 2
Fore
SplineSet
513 533 m 1
 343.898338899 597.860911107 238 743.408370296 238 973 c 0
 238 1177.73738646 314.159856 1346.11068436 401.5 1471.5 c 128
 463.706457867 1560.8063009 544.326745079 1638.41612996 645 1683 c 128
 691.666666667 1703.66666667 740 1714 790 1714 c 0
 1087.19772111 1714 1213 1533.09551433 1213 1226 c 0
 1213 1162.19111613 1205.70182155 1103.79098486 1203 1043 c 1
 1421.04422642 1213.56685453 1637.69701073 1394.15627482 1880 1592 c 1
 2065 1269 l 1
 1547 882 l 1
 1754.68353389 851.712817975 1900 739.620623781 1900 508 c 0
 1900 386.334357666 1860.39244822 275.784896433 1816 187 c 128
 1743.22620719 41.4524143716 1631.9602789 -95.0109460564 1486 -163.5 c 128
 1442.66666667 -183.833333333 1399.66666667 -194 1357 -194 c 0
 1078.46695795 -194 955 18.7823866323 955 296 c 0
 955 378.769919285 981.651534148 434.607608052 1016 493 c 1
 739.588664731 278.299102373 479.154087867 71.8729728154 221 -150 c 1
 167.801853689 -25.8709919404 121.034123273 81.0331503437 54 171 c 1
 207.885010003 284.988896299 362.66964803 414.557904508 513 533 c 1
1311 331 m 0
 1311 249.224972786 1314.09714997 147 1378 147 c 0
 1457.027897 147 1506.7142583 219.335008109 1535.5 279 c 128
 1566.84569461 343.971076092 1593 437.569018387 1593 527 c 0
 1593 611.253655919 1583.84120199 713 1517 713 c 0
 1452.12913124 713 1404.77486373 637.813726675 1377.5 586.5 c 128
 1342.87900099 521.365578138 1311 425.37472571 1311 331 c 0
598 962 m 1
 598 874.289328435 596.905637915 761 663 761 c 0
 729.379808605 761 771.781541531 830.701002157 796.5 884.5 c 128
 828.891634148 954.999439028 851 1053.72404828 851 1155 c 0
 851 1264.33333333 828.333333333 1319 783 1319 c 0
 722.512081244 1319 681.419133336 1249.7762719 657.5 1201 c 128
 627.064414199 1138.93527601 599.448453008 1048.90718051 598 962 c 1
EndSplineSet
EndChar

StartChar: ampersand
Encoding: 38 38 9
Width: 1910
Flags: HW
LayerCount: 2
Fore
SplineSet
1758 925 m 1
 1609.14972573 1055.80781678 1395.27290637 1105 1120 1105 c 0
 999.913609484 1105 882.513493969 1080.84769694 818 1027.5 c 128
 800.666666667 1013.16666667 792 998.666666667 792 984 c 0
 792 958.666666667 808 936.5 840 917.5 c 128
 872 898.5 919.333333333 882 982 868 c 1
 1056 846 1126.33333333 835 1193 835 c 0
 1211.66666667 835 1230.66666667 836 1250 838 c 1
 1224.31786878 708.162558813 1192.78754118 588.29496679 1150 470 c 1
 694 434.666666667 466 352 466 222 c 0
 466 182 495.5 151.666666667 554.5 131 c 128
 613.5 110.333333333 701.333333333 100 818 100 c 1
 1022.91320343 108.781994433 1168.408672 167.845991562 1296 256 c 1
 1326.7422436 441.850836303 1351.79983509 626.444322691 1380 820 c 1
 1524.75973481 814.687716154 1662.58420674 808.080902472 1804 800 c 1
 1676.66666667 272 1596.66666667 -146 1564 -454 c 1
 1466.61527382 -449.130763691 1359.99939996 -430.2164268 1265.5 -419.5 c 128
 1233.16666667 -415.833333333 1206 -414 1184 -414 c 1
 1223.48320694 -295.550379171 1263.32026495 -152.456776871 1296 -29 c 1
 1161.27950299 -125.228926437 999.968098546 -202.784425394 808.5 -234.5 c 128
 754.166666667 -243.5 701.333333333 -248 650 -248 c 0
 412.473828945 -248 239.463512486 -155.211385489 161 6.5 c 128
 133.666666667 62.8333333333 120 128.666666667 120 204 c 0
 120 318.45716878 169.432862221 404.643672447 229.5 478 c 128
 317.553812468 585.534744429 439.177231952 669.588615976 580 740 c 1
 531.033638035 845.549713569 492 954.577597133 492 1088 c 0
 492 1216.66666667 539 1322 633 1404 c 128
 727 1486 868.666666667 1542 1058 1572 c 1
 1120.8278684 1573.36582323 1184.87832983 1578 1250 1578 c 0
 1481.65917032 1578 1660.72387782 1529.04179251 1818 1446 c 1
 1818 1289.51504665 1815.50707068 1123.00413649 1783.5 996.5 c 128
 1776.5 968.833333333 1768 945 1758 925 c 1
EndSplineSet
EndChar

StartChar: quotesingle
Encoding: 39 39 10
Width: 838
Flags: HW
LayerCount: 2
Fore
SplineSet
352 872 m 1
 243.198095623 905.477509039 146.906752086 953.63424453 30 1010 c 1
 97.8006105091 1103.8777684 161.567920995 1195.11114345 222 1294 c 0
 289.393481941 1405.50557921 326.923155291 1518.59869985 354 1660 c 1
 836 1646 l 1
 751.145892333 1441.35185798 631.526640499 1252.70197221 507 1077 c 128
 458.333333333 1008.33333333 406.666666667 940 352 872 c 1
EndSplineSet
EndChar

StartChar: parenleft
Encoding: 40 40 11
Width: 990
Flags: HW
LayerCount: 2
Fore
SplineSet
832 1928 m 1
 661.333333333 1782.66666667 517.333333333 1640 400 1500 c 128
 282.666666667 1360 190.666666667 1221.33333333 124 1084 c 1
 -102.263979187 1148.6468512 -337.287316982 1190.14500805 -625.5 1237 c 128
 -1402.97888805 1363.3954336 -2220.55569359 1456.82732666 -3087 1551.5 c 128
 -4588.89146573 1715.60527379 -6127.87389365 1856.87590992 -7730 1999 c 1
 -4340.45891935 2016.74628838 -1167.39726547 2034.33024776 2094 2073.5 c 128
 2981.64587854 2084.160728 3762.36646393 2095.90935438 4543 2112.5 c 128
 5016.5031808 2122.56326671 5391.88970565 2130.98581502 5777.5 2152 c 128
 5899.83333333 2158.66666667 5987.16666667 2165.33333333 6039.5 2172 c 128
 6091.83333333 2178.66666667 6118 2185.33333333 6118 2192 c 0
 6118 2212.53882927 5968.90490221 2223.36733191 5935 2227 c 128
 5804.84369318 2240.94531859 5663.77064597 2253.13834832 5528 2264 c 1
 3250.78992413 2249.78224718 1079.82545732 2238.21485733 -1125.5 2196.5 c 128
 -1692.57373814 2185.77351063 -2200.62124225 2179.01096819 -2706.5 2150 c 128
 -2782.4936332 2145.64194218 -2976 2138.87847806 -2976 2117 c 0
 -2976 2110.33333333 -2947.5 2103.33333333 -2890.5 2096 c 128
 -2710.17032085 2072.7996904 -2501.60260562 2063.43111008 -2273.5 2052 c 128
 -1265.08792632 2001.464543 -197.863289114 1965.50202453 832 1928 c 1
390 -574 m 1
 252.666666667 -395.333333333 151 -216.166666667 85 -36.5 c 128
 19 143.166666667 -14 327.333333333 -14 516 c 0
 -14 740.242735102 43.1686740136 917.718415114 124 1084 c 1
 197 1061 l 1
 266.430803675 1036.75432253 326.369409704 1013.2215265 375 979 c 128
 400.325362979 961.178448274 426 939.486765282 426 906 c 0
 426 878.695347696 417.166184215 849.498552644 410 828 c 1
 361.333333333 721.333333333 337 618.666666667 337 520 c 0
 337 371.145675234 391.381619804 254.395013114 457.5 155.5 c 128
 543.206820921 27.3060370843 662.089893185 -81.1743692784 794 -174 c 1
 390 -574 l 1
EndSplineSet
EndChar

StartChar: parenright
Encoding: 41 41 12
Width: 1216
Flags: HW
LayerCount: 2
Fore
SplineSet
711 559 m 1
 751.676182037 624.533848837 762 710.655101936 762 816 c 1
 752.666666667 940.666666667 709.333333333 1063 632 1183 c 128
 554.666666667 1303 444.666666667 1418 302 1528 c 1
 704 1924 l 1
 968.666666667 1560.66666667 1101 1192.33333333 1101 819 c 0
 1101 538.173479213 1014.78404095 322.151835777 898 126 c 128
 738.003534535 -142.731927432 516.022478547 -364.666661197 262 -574 c 1
 -978.60993254 -550.51842399 -2225.02832815 -532.706820672 -3450.5 -495 c 128
 -3618.17788455 -489.840680476 -3768.15445773 -485.447621971 -3903 -475.5 c 128
 -3943.66666667 -472.5 -3964 -469.666666667 -3964 -467 c 0
 -3964 -453.788997284 -3656.54658919 -449.436688271 -3552.5 -447 c 128
 -2770.46930784 -428.685463884 -1968.33647296 -426.403030921 -1100.5 -421.5 c 128
 594.842076482 -411.921796178 2319.53711663 -406.7419653 4112 -402 c 1
 5296.82059456 -356.143972805 6443.92454497 -310.553702159 7572 -261 c 1
 3630.80160076 -249.879237022 -27.3424460777 -241.757953106 -3851 -210 c 128
 -4674.14156937 -203.163276002 -5358.41668502 -199.373931153 -6094.5 -180.5 c 128
 -6185.6419898 -178.163025903 -6415 -174.934195119 -6415 -161 c 1
 -6415 -439 -6328.16666667 -625 -6154.5 -719 c 128
 -5980.83333333 -813 -5748.33333333 -842.333333333 -5457 -807 c 128
 -5165.66666667 -771.666666667 -4829.5 -685.5 -4448.5 -548.5 c 128
 -3632.16303037 -254.96150961 -2782.53355678 137.326664667 -2004 513 c 128
 -1584 715.666666667 -1189.5 900.5 -820.5 1067.5 c 128
 -451.5 1234.5 -121.666666667 1369.83333333 169 1473.5 c 128
 459.666666667 1577.16666667 682.833333333 1621.5 838.5 1606.5 c 128
 994.166666667 1591.5 1068.33333333 1503.66666667 1061 1343 c 128
 1053.66666667 1182.33333333 937 921 711 559 c 1
EndSplineSet
EndChar

StartChar: asterisk
Encoding: 42 42 13
Width: 910
Flags: HW
LayerCount: 2
Fore
SplineSet
1131 1936 m 0
 1131 1894.48155278 1152.77690485 1881 1193 1881 c 256
 1241.63682257 1881 1303.87899768 1900.44449939 1348 1912 c 1
 860 1442 l 1
 886.877889348 1442 911.121030709 1444 938 1444 c 1
 867 1358 l 1
 878 1388 l 1
 839 1330 l 1
 795.428266827 1310.93736674 747.324692712 1294.12987708 702 1276 c 1
 740.262686264 1281.46609804 778.218772205 1286.48599521 816 1293 c 1
 796 1261 781.833333333 1236 773.5 1218 c 128
 765.166666667 1200 761 1186.33333333 761 1177 c 0
 761 1168.33333333 765 1164 773 1164 c 0
 783.094251113 1164 800.116322738 1172.6201793 808 1177 c 1
 847 1298 l 1
 993 1320 1144 1342 1300 1364 c 1
 732 904 l 1
 754.662245316 995.982054519 779.09055737 1080.54431145 806 1168 c 1
 354 842 l 1
 429.315756308 1095.2167669 502.465216186 1342.25258773 574 1594 c 1
 525.771690408 1499.68686124 486.588362234 1422.35630898 432.5 1354.5 c 128
 408.032349073 1323.80421975 383.955231512 1292 345 1292 c 0
 327.891052368 1292 309.575384758 1304.27384573 305 1318 c 1
 324.8283447 1326.49786201 342.940413256 1335.83488707 362 1346 c 1
 160 1542 l 1
 338 1710 l 1
 449.030017432 1860.29673091 551.526148656 2009.39100375 652 2172 c 1
 482 1758 l 1
 641.098247456 1975.48292542 818.416440325 2169.37503808 1018 2364 c 1
 684 1566 l 1
 867.880202169 1777.1217136 1048.88897386 1980.00640241 1234 2194 c 1
 1196.66666667 2126 1170.16666667 2071.66666667 1154.5 2031 c 128
 1138.83333333 1990.33333333 1131 1958.66666667 1131 1936 c 0
305 1318 m 1
 285.246936833 1307.46503298 265.100753331 1300.91471619 246 1290 c 1
 180 1209 l 1
 272 1374 l 1
 282.666666667 1352 293.666666667 1333.33333333 305 1318 c 1
224 1180 m 1
 120 1102 l 1
 163 1180 l 1
 224 1180 l 1
816 1293 m 1
 839 1330 l 1
 848 1334 l 1
 867 1358 l 1
 847 1298 l 1
 816 1293 l 1
180 1209 m 1
 163 1180 l 1
 156 1180 l 1
 180 1209 l 1
EndSplineSet
EndChar

StartChar: plus
Encoding: 43 43 14
Width: 1298
Flags: HW
LayerCount: 2
Fore
SplineSet
592 1148 m 1
 698.307273412 1119.65139376 865.678771408 1138.35232762 972 1110 c 1
 948.666033766 1004.99715195 926.132310034 901.453086207 896 782 c 1
 1022.10625293 784.967205951 1127.603234 794.18778451 1244 814 c 1
 1215.11716198 694.85829315 1201.70925363 535.200767103 1176 414 c 1
 1149.38656575 527.711946358 1129.01704918 639.775409829 1126 768 c 1
 816 426 l 1
 790.284845171 298.709983598 773.971030397 173.518994851 760 38 c 1
 651.210288598 67.0105897073 482.804967888 52.9853418966 374 82 c 1
 408.471471116 194.695194033 433.989292038 298.04953742 464 414 c 1
 92 394 l 1
 112.674591386 518.047548313 133.375087779 646.324354402 158 784 c 1
 169.333333333 784.666666667 181.833333333 785 195.5 785 c 128
 216 785 216 785 242 785 c 0
 335.173852271 785 431.184842027 782.23511213 534 780 c 1
 551.531329816 895.706776783 572.029580912 1017.0828082 592 1148 c 1
EndSplineSet
EndChar

StartChar: comma
Encoding: 44 44 15
Width: 1214
Flags: HW
LayerCount: 2
Fore
SplineSet
326 -86 m 1
 387.86816152 24.3922097703 433.892652114 132.889458901 458 270 c 1
 942 260 l 1
 857.977171132 56.3082936539 737.444272891 -131.623069651 613.5 -307 c 128
 564.5 -376.333333333 512.666666667 -445.333333333 458 -514 c 1
 349.738524011 -477.912841337 245.315172853 -428.515935651 138 -376 c 1
 203.064138932 -280.906258484 258.756758375 -190.279805794 308 -86 c 1
 326 -86 l 1
EndSplineSet
EndChar

StartChar: hyphen
Encoding: 45 45 16
AltUni2: 002010.ffffffff.0
Width: 1334
Flags: HW
LayerCount: 2
Fore
SplineSet
1190 470 m 1
 839.737286052 463.264178578 544.196425334 408.266233374 212 368 c 1
 220.050648797 492.78505636 229.203282435 645.62625948 244 764 c 1
 485.169582906 790.37792313 760.694768039 785.59415378 1011 799.5 c 128
 1089 803.833333333 1160 812 1224 824 c 1
 1217.27010199 748.288647348 1213.13773212 676.239589082 1204 594 c 2
 1190 470 l 1
EndSplineSet
EndChar

StartChar: period
Encoding: 46 46 17
Width: 902
Flags: HW
LayerCount: 2
Fore
SplineSet
410 312 m 0
 543.616125639 312 652.16086048 251.228631128 670 134 c 1
 666.966576475 47.5474295303 629.078924162 -21.7467482369 592 -82 c 1
 551.710716805 -95.4297610648 505.987585808 -107 455 -107 c 0
 352.037973339 -107 271.403540053 -72.6796464043 233 -8 c 128
 220.333333333 13.3333333333 213.333333333 37.3333333333 212 64 c 1
 196 80 l 1
 210.028893385 164.173360312 245.012363713 231.840256788 288 290 c 1
 324.666666667 304.666666667 365.333333333 312 410 312 c 0
EndSplineSet
EndChar

StartChar: slash
Encoding: 47 47 18
Width: 1578
Flags: HW
LayerCount: 2
Fore
SplineSet
-106 -114 m 1
 381.67426414 425.008397207 848.219860406 1013.46421957 1334 1648 c 1
 1650 1460 l 1
 954 648 l 1
 723.213024579 347.728773915 504.133066141 59.688510367 294 -238 c 1
 208 -286 l 1
 -106 -114 l 1
EndSplineSet
EndChar

StartChar: zero
Encoding: 48 48 19
Width: 1678
Flags: HW
LayerCount: 2
Fore
SplineSet
1114 1568 m 0
 1501.92210701 1568 1615 1266.0333497 1615 878 c 0
 1615 828.465111835 1612.58571399 779.835708775 1610 732 c 1
 1550.82340485 481.637482058 1405.52453964 271.464183395 1245 115.5 c 128
 1160.49509781 33.3958052619 1069.51845305 -25.3223981914 970.5 -84 c 128
 861.985665056 -148.304791078 757.251091521 -188 584 -188 c 0
 176.045557655 -188 81.9889129923 130.27163169 66 522 c 1
 87.9707373403 697.765898723 163.704780573 858.569958037 247 991.5 c 128
 389.165321746 1218.38027375 594.473413096 1421.92752991 860 1521.5 c 128
 942.666666667 1552.5 1027.33333333 1568 1114 1568 c 0
1252 756 m 0
 1252 898.313081156 1164.98374481 986 1022 986 c 0
 903.490625639 986 802.276012334 939.855071615 722.5 889.5 c 128
 587.52068457 804.300290261 468.69689832 674.77777025 412 514.5 c 128
 394.666666667 465.5 386 417.333333333 386 370 c 0
 386 224.088275358 479.434089446 140 626 140 c 0
 723.364493332 140 813.861094678 180.251181321 887 221 c 128
 1031.58341066 301.553614512 1158.11943864 425.727583589 1221 588 c 128
 1241.66666667 641.333333333 1252 697.333333333 1252 756 c 0
EndSplineSet
EndChar

StartChar: one
Encoding: 49 49 20
Width: 946
Flags: HW
LayerCount: 2
Fore
SplineSet
552 -148 m 1
 532.509611961 -148 513.184202123 -147 494 -147 c 0
 388.198969481 -147 289.822025401 -153.555568013 188 -160 c 1
 277.693086552 178.519068601 351.190414301 528.620514926 416 910 c 1
 366.469384993 890.738094164 317.855486522 868.149420283 266 850 c 1
 168 1106 l 1
 247.507154249 1190.8076312 327.499087038 1274.7621168 404 1362 c 2
 518 1490 l 1
 884 1492 l 1
 758.836237196 933.769617893 641.383407564 428.0264043 552 -148 c 1
EndSplineSet
EndChar

StartChar: two
Encoding: 50 50 21
Width: 1830
Flags: HW
LayerCount: 2
Fore
SplineSet
198 786 m 1
 206.529654545 875.561372719 206 969.80988084 206 1086 c 1
 357.837982183 1317.37216333 629.927634887 1455.91957575 937.5 1525 c 128
 1035.5742224 1547.02736546 1139.17899553 1563 1241 1563 c 0
 1276.61803281 1563 1311.00507944 1561.16582009 1342 1556 c 1
 1511.46569327 1547.77351004 1634.40001022 1515.04995655 1667 1376.5 c 128
 1676.33333333 1336.83333333 1681 1288.66666667 1681 1232 c 0
 1681 1090.83149318 1647.80858962 948.244250435 1610 836 c 1
 1460.82604323 565.622203355 1230.90230181 375.6353028 966 214 c 1
 1644 294 l 1
 1588 -68 l 1
 1071.88461966 -113.460940237 574.122787352 -160.538407332 58 -206 c 1
 82.4905062275 -69.9416320694 109.822774683 51.3762485584 139 184 c 1
 221.810649584 205.233499893 313.985204931 245.534388145 400 285 c 128
 589.459272216 371.928371958 785.321019447 479.786680314 949.5 595 c 128
 1047.62393999 663.858905256 1143.10340415 740.242198432 1205 831.5 c 128
 1231 869.833333333 1244 906 1244 940 c 0
 1244 980 1214 1002 1154 1006 c 1
 904.169177814 1006 698.789728626 918.261870025 622 740 c 1
 479.648862933 756.115223064 338.472257999 767.447060264 198 786 c 1
140 186 m 2
 140 185.333333333 139.833333333 185 139.5 185 c 128
 139.166666667 185 139 184.666666667 139 184 c 2
 138 184 l 1
 140 186 l 2
EndSplineSet
EndChar

StartChar: three
Encoding: 51 51 22
Width: 1788
Flags: HW
LayerCount: 2
Fore
SplineSet
659 522 m 0
 659 608.210028827 650.795450488 688.698062962 626 756 c 1
 689.186412097 763.658959042 759.05438644 789.251687092 819.5 812.5 c 128
 929.075747195 854.644518152 1048.35895336 909.782034785 1132 975.5 c 128
 1160.74278384 998.083615871 1182 1016.86377097 1182 1050 c 0
 1182 1080.66666667 1142.66666667 1096 1064 1096 c 0
 915.768123557 1096 738.247766271 1073.46538219 653.5 1004 c 128
 633.166666667 987.333333333 623 967.333333333 623 944 c 0
 623 932.666666667 625.333333333 921.333333333 630 910 c 1
 324 768 l 1
 252 1066 l 1
 271.379441728 1145.94019713 288.755341121 1218.25223972 304 1296 c 1
 623.333333333 1478.66666667 914 1570 1176 1570 c 0
 1383.72070894 1570 1543.98354669 1514.15620536 1599.5 1362 c 128
 1608.5 1337.33333333 1616.66666667 1310.66666667 1624 1282 c 2
 1656 1166 l 1
 1637.33333333 1123.33333333 1603.5 1074.16666667 1554.5 1018.5 c 128
 1505.5 962.833333333 1442 906.666666667 1364 850 c 1
 1436 819.333333333 1495.33333333 784.333333333 1542 745 c 128
 1588.66666667 705.666666667 1616 664 1624 620 c 1
 1642.06856324 545.144523721 1654.94461098 468.151570395 1666 388 c 1
 1634.61323068 278.972274977 1550.11387201 187.898210338 1464 116.5 c 128
 1292.17449602 -25.9629178563 1058.69738324 -129.100109744 789.5 -177 c 128
 695.833333333 -193.666666667 598.333333333 -202 497 -202 c 0
 339.213916677 -202 196.944295596 -173.487942467 84 -126 c 1
 302 250 l 1
 375.333333333 164.666666667 492.666666667 122 654 122 c 0
 791.812403625 122 925.27331313 157.723166907 1031 198 c 128
 1105.38303831 226.336395545 1176.51168152 262.704711034 1222 313.5 c 128
 1242 335.833333333 1252 359.333333333 1252 384 c 0
 1252 446.82630228 1169.03452506 449.414096015 1101.5 453 c 128
 1063.83333333 455 1016.66666667 456 960 456 c 0
 853.935677912 456 758.9589731 442.246271533 658 426 c 1
 658 457.165810872 659 489.03961947 659 522 c 0
EndSplineSet
EndChar

StartChar: four
Encoding: 52 52 23
Width: 1666
Flags: HW
LayerCount: 2
Fore
SplineSet
818 1392 m 1
 1202 1188 l 1
 984 -58 l 1
 604 146 l 1
 658 418 l 1
 296 186 l 1
 154 248 l 1
 24 316 l 1
 206 1352 l 1
 542 1178 l 1
 460 700 l 1
 720 812 l 1
 818 1392 l 1
EndSplineSet
EndChar

StartChar: five
Encoding: 53 53 24
Width: 1740
Flags: HW
LayerCount: 2
Fore
SplineSet
1621 1240 m 0
 1621 1232.4963202 1622 1225.16948876 1622 1218 c 1
 1277.94073157 1153.48888717 941.861576604 1091.87288052 588 1036 c 1
 574.216758676 994.650276028 564.791775213 937.167100853 554 894 c 2
 548 868 l 1
 704.206282142 929.966128453 871.683022046 961.214344663 1082 964 c 1
 1359.3444664 960.302073781 1540.88473598 896.412591277 1605.5 683.5 c 128
 1625.83333333 616.5 1636 534 1636 436 c 1
 1597.91221461 315.112681163 1509.34638919 210.654972333 1416.5 125.5 c 128
 1236.50448931 -39.5846399842 995.07909944 -167.569023225 710 -229.5 c 128
 613.333333333 -250.5 513 -261 409 -261 c 0
 265.828417803 -261 154.269208028 -231.715647158 54 -178 c 1
 264 104 l 1
 323.128147846 78.292109632 393.892811961 67 477 67 c 0
 641.709688697 67 794.210515389 114.372992644 912 169 c 128
 994.128431838 207.088548099 1071.29840249 256.067609832 1118.5 322 c 128
 1139.5 351.333333333 1150 381.666666667 1150 413 c 0
 1150 524.955315308 1038.33123418 547.927148932 908 552 c 1
 672.666666667 552 462.666666667 475.333333333 278 322 c 1
 208.895283226 421.670264578 146.408657662 514.511089391 76 612 c 1
 164.970562245 863.438545475 216.935049915 1126.25811284 242 1434 c 1
 717.552872891 1496.299503 1195.72541673 1610.28767334 1660 1692 c 1
 1652.48284267 1549.17401064 1621 1390.14583705 1621 1240 c 0
EndSplineSet
EndChar

StartChar: six
Encoding: 54 54 25
Width: 1622
Flags: HW
LayerCount: 2
Fore
SplineSet
538 -180 m 0
 211.646711319 -180 88 21.42257693 88 346 c 0
 88 525.643387276 141.102694827 675.874803538 199 813 c 128
 317.180339758 1092.90080469 494.431677459 1342.70080502 708 1532 c 1
 741.066145152 1580.09621113 775.548602191 1620.32290329 810 1672 c 1
 1152 1390 l 1
 966.666666667 1292.66666667 829.333333333 1191.33333333 740 1086 c 1
 728 1060.66666667 716.333333333 1043.66666667 705 1035 c 1
 822.640952119 1092.68931306 942.235238809 1134 1098 1134 c 0
 1270.77586544 1134 1386.72370243 1094.70235348 1454.5 992.5 c 128
 1527.96686079 881.716638494 1547.06875449 718.546220353 1572 554 c 1
 1506.69903018 339.439670576 1355.38375829 172.345926893 1191 49.5 c 128
 1072.93296154 -38.7328943356 932.531044608 -110.518258316 772 -151 c 128
 695.333333333 -170.333333333 617.333333333 -180 538 -180 c 0
408 265 m 0
 408 164.856151809 511.015816118 141 623 141 c 0
 779.183722864 141 908.298498173 197.793503381 1005.5 262 c 128
 1070.63740891 305.026545335 1130.56922279 357.619063199 1168 422 c 128
 1184.66666667 450.666666667 1194 478.666666667 1196 506 c 1
 1193.33333333 588.666666667 1134.66666667 630 1020 630 c 1
 879.647251723 624.151968822 746.448237394 571.224118697 642 519 c 128
 561.973844093 478.986922046 486.856212655 427.355805691 440 360 c 128
 418.666666667 329.333333333 408 297.666666667 408 265 c 0
EndSplineSet
EndChar

StartChar: seven
Encoding: 55 55 26
Width: 1662
Flags: HW
LayerCount: 2
Fore
SplineSet
1265 732 m 1
 1279.42928852 634.6023025 1276.57868207 530.48091356 1281 410 c 1
 1149 372 l 1
 1060.82372489 191.006593204 969.719838304 0.995796250241 882 -193 c 1
 737.66598393 -193 601.769583055 -212.395719135 480 -234 c 1
 563.781849272 -44.2084638931 648.771216036 140.313648109 716 342 c 1
 294 306 l 1
 310 640 l 1
 497.524754767 657.937150456 673.632958426 674.755982069 851 692 c 1
 909.850351462 805.642057996 974.081418196 928.095693869 1034 1046 c 1
 696.837029343 1022.83613179 387.613797551 986.954996776 88 934 c 1
 92 1082.66666667 102 1262.66666667 118 1474 c 1
 477.547066132 1508.11760482 834.077078558 1530.3796043 1210 1544 c 0
 1240 1545.33333333 1269.66666667 1546 1299 1546 c 130
 1556 1546 l 130
 1579.33333333 1546 1602.66666667 1546.66666667 1626 1548 c 1
 1265 732 l 1
EndSplineSet
EndChar

StartChar: eight
Encoding: 56 56 27
Width: 1914
Flags: HW
LayerCount: 2
Fore
SplineSet
72 248 m 1
 99.3333333333 346 153.666666667 436.833333333 235 520.5 c 128
 316.333333333 604.166666667 428.666666667 682 572 754 c 1
 480.316389727 799.841805136 411.920173492 888.710815152 382 994.5 c 128
 372.666666667 1027.5 368 1060 368 1092 c 0
 368 1188.07649685 431.192492327 1266.19755791 488 1324.5 c 128
 611.560996211 1451.31260137 789.197714935 1548.29616264 994.5 1595 c 128
 1064.83333333 1611 1137 1619 1211 1619 c 0
 1390.55731054 1619 1531.82057827 1559.70390875 1615.5 1466.5 c 128
 1685.49207383 1388.54134867 1729.74600703 1272.72344095 1687.5 1136 c 128
 1642.73501312 991.124224271 1522.69426872 888.002737435 1380 820 c 1
 1528.17204086 768.312078769 1652.70655615 681.929995866 1705 540.5 c 128
 1719.66666667 500.833333333 1727 460 1727 418 c 0
 1727 294.044619782 1660.83635203 194.069322068 1592 116.5 c 128
 1434.80061277 -60.6425930748 1197.61253406 -178.041081666 911.5 -234 c 128
 805.833333333 -254.666666667 691 -265 567 -265 c 0
 237.903137178 -265 92.9076615029 -56.6544961857 72 248 c 1
785 1087 m 0
 785 1042.50490079 848.046331661 1034 902 1034 c 0
 947.851397424 1034 1002.70803257 1047.42700814 1049 1059 c 128
 1140.95066323 1081.98766581 1244.90583268 1113.25834824 1308 1163.5 c 128
 1326 1177.83333333 1335.33333333 1192.66666667 1336 1208 c 0
 1336 1268.6271363 1286.84495581 1280 1216 1280 c 0
 1077.34959578 1280 947.953762837 1239.32438293 860 1185 c 128
 826.448036086 1164.27672817 785 1132.90046986 785 1087 c 0
1374 414 m 0
 1374 504.034467687 1259.79148827 516.105229012 1148 518 c 1
 997.527043534 518 859.411406756 471.927293476 751.5 420 c 128
 669.643520704 380.610415978 595.523696007 327.812412915 551 256 c 128
 530.333333333 222.666666667 520 187 520 149 c 0
 520 55.3247071375 620.624268668 38 732 38 c 0
 810.04061221 38 896.657853691 61.8923315809 968.5 84.5 c 128
 1110.57382374 129.208545932 1259.20980696 199.753160221 1337.5 307 c 128
 1361.83333333 340.333333333 1374 376 1374 414 c 0
EndSplineSet
EndChar

StartChar: nine
Encoding: 57 57 28
Width: 1688
Flags: HW
LayerCount: 2
Fore
SplineSet
1605 1074 m 0
 1605 1022.20259072 1600 973.715983451 1600 929 c 0
 1600 839.941523897 1577.87350066 782.13413336 1551 710 c 128
 1538.33333333 676 1522 634.666666667 1502 586 c 2
 1220 -102 l 1
 1137.33333333 -108 1038 -135.333333333 922 -184 c 0
 885.67490492 -198.860266169 853.803217324 -236.058073651 826 -266 c 1
 806.942690306 -193.057309694 788.655903983 -119.344096017 770 -46 c 1
 821.070527698 -2.59005145635 872.510849853 39.3043292736 920 84 c 1
 992.768966552 194.29046493 1051.01197148 302.529928693 1098 420 c 1
 945.083897954 331.648474373 778.162380973 260 562 260 c 0
 299.065941617 260 182.780748106 370.283230201 129.5 580.5 c 128
 111.166666667 652.833333333 96 738 84 836 c 1
 145.94256666 1055.18138972 300.614357285 1224.7676286 464.5 1350.5 c 128
 584.810731385 1442.80188387 728.50068439 1517.03182172 893.5 1559.5 c 128
 972.5 1579.83333333 1053.33333333 1590 1136 1590 c 0
 1294.46419116 1590 1408.98253705 1517.05457992 1483 1427 c 128
 1552.89240334 1341.9642426 1605 1218.37645891 1605 1074 c 0
423 725 m 0
 423 627.98080274 501.844245566 596 612 596 c 1
 701.716765523 597.661421584 790.670800745 625.449427166 864 655 c 128
 987.800783805 704.8898681 1116.92305567 776.687148315 1186 878 c 128
 1206 907.333333333 1216 936.333333333 1216 965 c 0
 1216 1055.0333164 1124.96207149 1084 1034 1084 c 1
 1034 1082.66666667 1034.66666667 1082 1036 1082 c 1
 867.129344519 1082 725.87845902 1024.82414449 618 959 c 128
 549.732285296 917.345123231 485.758107054 865.742993293 447.5 802.5 c 128
 431.166666667 775.5 423 749.666666667 423 725 c 0
EndSplineSet
EndChar

StartChar: colon
Encoding: 58 58 29
Width: 812
Flags: HW
LayerCount: 2
Fore
SplineSet
374 1060 m 1
 410 1071.33333333 448.666666667 1077 490 1077 c 0
 578.84493871 1077 649.219914839 1048.67220163 694 998 c 1
 722.054532224 977.596703837 744.869076872 952.175500166 756 916 c 1
 750.125252545 822.004040723 713.006142484 749.127402768 672 684 c 1
 631.114378178 665.214714298 593.462061295 651 542 651 c 0
 438.657573438 651 356.998815816 701.963604736 307.5 758 c 128
 289.833333333 778 278 798 272 818 c 1
 276 910.666666667 310 991.333333333 374 1060 c 1
286 158 m 0
 426.886250131 158 551.315611035 109.380767444 564 -20 c 1
 558.093901753 -113.021047384 527.727208447 -172.181916492 486 -236 c 1
 438.666666667 -255.333333333 390.666666667 -265 342 -265 c 0
 217.379299293 -265 123.782792843 -200.262342742 110 -90 c 1
 104.067557462 -79.3216034325 97 -63.821666547 97 -48 c 0
 97 -39.3333333333 98.6666666667 -32 102 -26 c 0
 128.260622853 40.3426261554 161.918666213 97.6962574498 202 152 c 1
 228 156 256 158 286 158 c 0
EndSplineSet
EndChar

StartChar: semicolon
Encoding: 59 59 30
Width: 1054
Flags: HW
LayerCount: 2
Fore
SplineSet
672 1086 m 1
 792.834808628 1086 887.372803968 1046.54997088 918 956 c 1
 918 868.023161829 884.776942258 799.76253117 848 740 c 1
 824 733.333333333 798.333333333 730 771 730 c 0
 739.666666667 730 706 734.666666667 670 744 c 1
 664.666666667 743.333333333 659.666666667 743 655 743 c 128
 648 743 648 743 641 743 c 0
 559.707228282 743 498.558794728 772.510632013 466 822 c 1
 446 832.666666667 429.333333333 842 416 850 c 1
 442 916 l 1
 454 975.333333333 483.333333333 1027.33333333 530 1072 c 1
 555.774621676 1084.88731084 583.548301066 1095 619 1095 c 0
 639.469561727 1095 655.510565109 1091.88908389 672 1086 c 1
28 -552 m 1
 204 -329.333333333 313.333333333 -106.666666667 356 116 c 1
 838 106 l 1
 733.333333333 -175.333333333 554.666666667 -456 302 -736 c 1
 28 -552 l 1
EndSplineSet
EndChar

StartChar: equal
Encoding: 61 61 31
Width: 1300
Flags: HW
LayerCount: 2
Fore
SplineSet
1092 262 m 1
 764.742309609 218.845139729 459.883679421 166.274671929 114 124 c 1
 128.188019172 244.598162962 130.131016639 400.982624794 146 520 c 1
 390.399443545 543.092860807 669.832931034 538.655957118 917 554.5 c 128
 995 559.5 1064.66666667 568.666666667 1126 582 c 1
 1119.66493459 528.15194402 1114.65772388 468.550410477 1110 408 c 1
 1092 262 l 1
1160 808 m 1
 917.226980087 805.642980389 709.521445139 774.588451562 483.5 743.5 c 128
 393.833333333 731.166666667 294 718 184 704 c 1
 191.587299125 829.190435559 201.381612083 981.398299687 216 1102 c 1
 458.843304836 1124.76655983 730.315163667 1117.34340093 976 1134 c 128
 1054.66666667 1139.33333333 1128 1149.33333333 1196 1164 c 1
 1192.57439765 1085.21114595 1185.29266306 1013.30717403 1174 932 c 1
 1160 808 l 1
EndSplineSet
EndChar

StartChar: question
Encoding: 63 63 32
Width: 1582
Flags: HW
LayerCount: 2
Fore
SplineSet
1014 1386 m 1
 835.941196823 1362.45503429 693.946749542 1297.29783303 566 1212 c 1
 334 1490 l 1
 332.666666667 1488.66666667 332 1486 332 1482 c 1
 262 1556 l 1
 408.666666667 1689.33333333 555.5 1788 702.5 1852 c 128
 849.5 1916 997.333333333 1948 1146 1948 c 0
 1294.87108132 1948 1403.49930324 1904.92808081 1498 1844 c 1
 1632.63611022 1709.36388978 1712.16617565 1551.67354089 1730 1302 c 1
 1676.71651726 1114.34947384 1551.41778034 968.917564788 1414.5 858.5 c 128
 1272.62667126 744.086025208 1090.8115448 646.995455378 870 618 c 1
 818 360 l 1
 671.114258992 397.052258993 529.583865627 426.796509116 382 462 c 1
 584 990 l 1
 641.022267477 975.441123197 715.247529642 965 784 965 c 0
 917.930455018 965 1031.71237964 1007.64756121 1122 1055.5 c 128
 1180.21696141 1086.35498955 1235.27645349 1125.55100054 1268.5 1175 c 128
 1282.83333333 1196.33333333 1290 1217.33333333 1290 1238 c 256
 1290 1289.14326721 1238.69347947 1323.15520027 1199.5 1343 c 128
 1151.74620418 1367.17913712 1083.04806795 1386 1014 1386 c 1
102 -178 m 1
 108.191224916 -106.800913467 137.603775384 -55.7229378142 182 -16 c 1
 246.628255546 -22.2543473109 301.448227956 -23.7252348244 355 -41 c 128
 375.666666667 -47.6666666667 398.666666667 -57.3333333333 424 -70 c 1
 515.932228379 -83.3235113593 584.70251244 -145.347736369 590 -246 c 1
 574 -218 l 1
 574 -316.529408598 494.264344229 -352 396 -352 c 0
 376.931396422 -352 361.539857564 -350.505693938 344 -348 c 1
 346.603299862 -340.190100413 349.397024121 -329.808927638 352 -322 c 1
 297.333333333 -315.333333333 256 -294 228 -258 c 1
 224 -258.666666667 220.333333333 -259 217 -259 c 128
 212 -259 212 -259 207 -259 c 0
 178.333333333 -259 156 -254 140 -244 c 1
 102 -178 l 1
EndSplineSet
EndChar

StartChar: at
Encoding: 64 64 33
Width: 2240
Flags: HW
LayerCount: 2
Fore
SplineSet
1872 874 m 0
 1872 1124.55815016 1723.38572831 1260 1472 1260 c 0
 1294.19839294 1260 1129.38861941 1195.40719125 997 1126.5 c 128
 754.936440768 1000.50790155 535.96079006 806.93624053 427.5 550 c 128
 393.166666667 468.666666667 376 384.666666667 376 298 c 0
 376 114.710779588 470.044784358 -16.2595270911 597 -75 c 128
 641.666666667 -95.6666666667 690 -106 742 -106 c 0
 761.690525274 -106 780.259850634 -104.534307052 798 -102 c 1
 594 -376 l 1
 559.648625731 -363.731652047 527.567144038 -350.783572019 498 -336 c 1
 199.962194838 -245.134815499 68 55.0037092917 68 440 c 0
 68 630.34201635 124.45047762 790.698818277 194.5 925.5 c 128
 318.370270211 1163.87220066 509.163487489 1356.59474172 728 1501.5 c 128
 863.943440618 1591.51660257 1017.92398363 1665.04093732 1192 1706 c 128
 1271.33333333 1724.66666667 1349.33333333 1734 1426 1734 c 0
 1629.33333333 1734 1801.33333333 1673.33333333 1942 1552 c 1
 2079.98468717 1364.38924113 2177 1115.8088459 2177 807 c 0
 2177 645.370698163 2130.77125782 508.632018271 2073 392.5 c 128
 1935.33259954 115.760429694 1706.67384416 -99.7178858191 1448 -256 c 1
 1351.6619192 -183.7464394 1256.75181927 -112.894052664 1158 -48 c 1
 1184.79737598 46.5789740498 1227.9628608 126.9725295 1268 220 c 1
 1207.33333333 147.333333333 1143.66666667 93.5 1077 58.5 c 128
 1010.33333333 23.5 946.333333333 6 885 6 c 0
 735.204538445 6 641.190842218 84.4810652277 598.5 196 c 128
 582.166666667 238.666666667 574 288.666666667 574 346 c 0
 574 464.989708234 620.514853948 567.589758696 671 651 c 128
 767.704638711 810.772881349 914.290171789 943.606048876 1088 1027.5 c 128
 1146.66666667 1055.83333333 1207.33333333 1076.66666667 1270 1090 c 1
 1267.38832409 1078.24745841 1269.40950376 1067.68553386 1268 1055 c 1
 1431.59268102 1042.21932179 1561.90092082 966.986807238 1594 824 c 1
 1587.87558663 579.023465071 1531.40534858 379.031936888 1482 172 c 1
 1644.69812377 294.927471292 1783.58787873 468.283052556 1845 685.5 c 128
 1863 749.166666667 1872 812 1872 874 c 0
862 399 m 0
 862 336.883723593 925.389176038 319 989 319 c 0
 1087.82700589 319 1177.34136034 357.056286198 1231.5 405 c 128
 1251.83333333 423 1266 443.333333333 1274 466 c 2
 1328 617 l 1
 1328 686.241521923 1285.94017582 719 1219 719 c 0
 1168.4267104 719 1118.65392687 698.331102213 1078.5 678 c 128
 995.875940496 636.165033162 919.77532148 573.713868534 881 488 c 128
 868.333333333 460 862 430.333333333 862 399 c 0
EndSplineSet
EndChar

StartChar: A
Encoding: 65 65 34
Width: 1838
Flags: HW
LayerCount: 2
Fore
SplineSet
1542 -157 m 0
 1455.32401507 -157 1367.61003875 -161 1281 -161 c 0
 1245 -161 1216 -160 1194 -158 c 1
 1186.16963536 -71.8659889372 1181.6619409 10.76074278 1168 90 c 1
 972.442934089 47.0204250745 759.713814263 27.1146999974 506 -2 c 1
 420 -180 l 1
 313.929243388 -155.893009861 168.288618512 -162.367946023 53 -150.5 c 128
 30.3333333333 -148.166666667 12 -144.666666667 -2 -140 c 1
 204.519385137 179.166322484 426.222752031 492.846838597 621 816 c 128
 723.194153864 985.549391638 817.377911753 1158.87430839 876 1349 c 128
 900.666666667 1429 913 1503.33333333 913 1572 c 0
 913 1600.99959556 909.860440975 1628.26372683 906 1654 c 1
 962 1641.33333333 1036.66666667 1633.33333333 1130 1630 c 1
 1106 1602 l 1
 1146 1604 1183 1605 1217 1605 c 0
 1267.66666667 1605 1312 1602 1350 1596 c 1
 1388.42188452 1253.69593795 1442.78195411 906.795036803 1494 526 c 1
 1539.54455601 526 1582.45436404 522 1628 522 c 1
 1628 505.679319143 1629 490.277325112 1629 473 c 0
 1629 362.621197753 1619.78504773 231.355143176 1592 148 c 128
 1583.33333333 122 1572.66666667 108 1560 106 c 1
 1578.88813189 11.5593405498 1600.85342893 -75.2099750666 1630 -160 c 1
 1606.66666667 -158 1577.33333333 -157 1542 -157 c 0
734 438 m 1
 864.541236547 460.952305327 988.053472727 490.354060952 1120 518 c 1
 1050 960 l 1
 933.217442381 775.188768039 833.030461254 608.742174576 734 438 c 1
EndSplineSet
EndChar

StartChar: B
Encoding: 66 66 35
Width: 1902
Flags: HW
LayerCount: 2
Fore
SplineSet
252 980 m 1
 245.124801708 1138.12956072 224 1317.07398534 224 1480 c 1
 490.910332064 1547.12714938 740.419738494 1605.95337224 1029.5 1631.5 c 128
 1101.16666667 1637.83333333 1169.66666667 1641 1235 1641 c 0
 1367.8081822 1641 1485.66457451 1626.77847516 1584 1594 c 1
 1707.33333333 1507.33333333 1776.66666667 1405.33333333 1792 1288 c 1
 1778.66666667 1202.66666667 1729.66666667 1115.66666667 1645 1027 c 128
 1560.33333333 938.333333333 1439.33333333 846 1282 750 c 1
 1454.09278102 747.642564644 1585.78487857 717.513330023 1674.5 644.5 c 128
 1740.66146672 590.04852739 1776.5217067 515.101795212 1786 414 c 1
 1778.66666667 378.666666667 1757.66666667 339.666666667 1723 297 c 128
 1638.39714744 192.873412229 1509.58539483 110.213050387 1373.5 38.5 c 128
 1115.07512784 -97.6824015101 789.773349411 -195.198033734 424 -226 c 1
 228 -234 l 1
 84 -72 l 1
 197.991435619 255.725377403 257.584172812 649.837698625 328 1016 c 1
 303.813844985 1003.90692249 278.522175044 992.055534111 252 980 c 1
1252 999 m 0
 1252 1041.61078357 1163.99495218 1036 1115 1036 c 0
 969.873058999 1036 842.585911935 1015.39882064 694 988 c 1
 604 596 l 1
 780.039545003 667.551557001 944.574592618 740.609536383 1083 826.5 c 128
 1138.33333333 860.833333333 1180.33333333 892.666666667 1209 922 c 128
 1237.66666667 951.333333333 1252 977 1252 999 c 0
962 349 m 0
 812.009097004 349 692.677552302 341.933629252 538 324 c 1
 518 215.333333333 502 114 490 20 c 1
 685.554492564 44.6816349838 878.936199699 84.5791585684 1044 138.5 c 128
 1125.57969591 165.149367332 1205.09522836 194.601085075 1258.5 237.5 c 128
 1278.83333333 253.833333333 1289 269.666666667 1289 285 c 0
 1289 307 1260 323.166666667 1202 333.5 c 128
 1144 343.833333333 1064 349 962 349 c 0
EndSplineSet
EndChar

StartChar: C
Encoding: 67 67 36
Width: 1926
Flags: HW
LayerCount: 2
Fore
SplineSet
1274 786 m 1
 1280.21432045 873.000486291 1293.43461986 950.97399375 1318 1016 c 1
 1269.33333333 1041.33333333 1213.66666667 1054 1151 1054 c 0
 1105.66666667 1054 1055.33333333 1047.33333333 1000 1034 c 1
 823.05158305 966.401728356 678.073333827 846.430321145 571 709.5 c 128
 510.571829969 632.221667171 458.160392977 546.911998544 427.5 451 c 128
 414.5 410.333333333 408 373.666666667 408 341 c 0
 408 172.0271606 526.334659214 85 703 85 c 0
 855.194784204 85 975.605156946 135.399901903 1077 200.5 c 128
 1203.59862474 281.782071567 1309.6349866 393.736556625 1400 520 c 1
 1820 394 l 1
 1749.934502 276.747533959 1642.46190903 176.396586911 1529 95 c 128
 1355.4337705 -29.5149037687 1139.12818008 -129.962739718 892.5 -176 c 128
 817.5 -190 744.666666667 -197 674 -197 c 0
 385.262306915 -197 196.402796681 -81.5816421167 109 126 c 128
 77 202 61 294 61 402 c 0
 61 612.353179707 146.716102799 794.003706188 238.5 938 c 128
 350.190484045 1113.22698694 506.931853381 1274.62123559 680 1390 c 128
 830.263386353 1490.1755909 1019.52710766 1580 1248 1580 c 0
 1504.81926404 1580 1710.83095739 1504.78349855 1807 1343.5 c 128
 1839 1289.83333333 1855 1226.66666667 1855 1154 c 0
 1855 1038.34385612 1821.09986593 945.664711753 1778 853 c 1
 1636.18581842 822.337474252 1468.69949661 803.77737064 1316 789 c 128
 1295.33333333 787 1281.33333333 786 1274 786 c 1
EndSplineSet
EndChar

StartChar: D
Encoding: 68 68 37
Width: 1758
Flags: HW
LayerCount: 2
Fore
SplineSet
238 878 m 1
 219.641870617 1026.39487918 210.837334127 1175.06530498 206 1348 c 1
 423.333333333 1424 618.333333333 1480.66666667 791 1518 c 128
 963.666666667 1555.33333333 1120 1575.33333333 1260 1578 c 1
 1410.90100993 1578 1527.98427635 1564.03943174 1612 1510.5 c 128
 1704.0705539 1451.8275882 1726.53366186 1347.69457923 1735 1208 c 128
 1737.66666667 1164 1742.66666667 1118 1750 1070 c 1
 1672.34405326 877.353516746 1543.27108793 703.507922094 1406.5 553 c 128
 1175.78901429 299.117168568 890.027583068 72.8056279591 588 -108 c 128
 490 -166.666666667 394.666666667 -217.333333333 302 -260 c 1
 110 -104 l 1
 186.558410478 220.94792003 249.717952294 561.036877525 322 936 c 1
 238 878 l 1
1264 938 m 1
 1264 1046.06422328 1190.90132218 1082 1074 1082 c 0
 942.863480358 1082 837.367872605 1055.66078146 714 1024 c 1
 644.744916941 760.830684375 578.010618755 475.225954718 528 196 c 1
 718.572405968 297.24159067 892.634047275 434.7492587 1034 583.5 c 128
 1109.88790179 663.352195163 1182.15694773 748.910764294 1230.5 841.5 c 128
 1250.16666667 879.166666667 1261.33333333 911.333333333 1264 938 c 1
EndSplineSet
EndChar

StartChar: E
Encoding: 69 69 38
Width: 1750
Flags: HW
LayerCount: 2
Fore
SplineSet
1342 628 m 0
 1342 604.38736183 1342.85989175 582.840649525 1346 564 c 1
 1066.04554523 477.743762583 764.35172179 416.448643671 424 368 c 1
 407.846675648 287.233378242 424.452865579 176.092900055 462.5 131 c 128
 471.5 120.333333333 482.666666667 114 496 112 c 1
 535.333333333 114 583.5 122.833333333 640.5 138.5 c 128
 800.929782704 182.594735597 951.159456421 244.556274405 1118.5 315.5 c 128
 1221.5 359.166666667 1338.66666667 410 1470 468 c 1
 1487.20274248 387.720535073 1521.95366496 302.29075793 1553 224 c 128
 1568.33333333 185.333333333 1585.33333333 147.333333333 1604 110 c 1
 1361.33333333 -6 1145.33333333 -92.3333333333 956 -149 c 128
 766.666666667 -205.666666667 601.333333333 -234 460 -234 c 0
 272.876502609 -234 194.605316496 -89.9826468638 153.5 57 c 128
 118.624510022 181.706297497 110 330.584700955 110 486 c 1
 101.752853764 565.722413611 91.5469930615 642.151782958 76 716 c 1
 152 768 l 1
 200.94985845 890.374646125 264 1014.76769083 264 1186 c 1
 276 1382 l 1
 634.459404763 1449.02899439 984.472778669 1522.36581326 1360 1592 c 1
 1477.57880466 1612.22861155 1586.25391309 1634.85243157 1702 1652 c 1
 1669.64891251 1515.66327415 1662 1346.15658583 1662 1182 c 1
 1327.26669675 1110.45395045 1008.71040377 1053.41312468 646 1006 c 1
 605.82438934 904.444984165 573.336707669 814.108604555 538 724 c 1
 790.497472972 779.426274555 1036.07284417 850.84264314 1352 940 c 1
 1352.66666667 934.666666667 1353 929.333333333 1353 924 c 128
 1353 916 1353 916 1353 906 c 0
 1353 814.131376232 1342 720.689703873 1342 628 c 0
EndSplineSet
EndChar

StartChar: F
Encoding: 70 70 39
Width: 1630
Flags: HW
LayerCount: 2
Fore
SplineSet
220 822 m 1
 212.361293827 913.664474082 198 992.302437082 198 1091 c 0
 198 1188.10769318 202.534787938 1285.82400097 208 1376 c 1
 678.778686616 1463.51655072 1156.84655183 1564.96362978 1638 1646 c 1
 1632.45378951 1529.52957965 1613.06698196 1392.7810621 1602 1277.5 c 128
 1598 1235.83333333 1596 1202 1596 1176 c 1
 1284.50586834 1092.69342991 946.44858316 1052.06408331 596 1002 c 1
 532 716 l 1
 654.104292294 741.706166799 768.803411315 774.991764582 896 810 c 2
 1288 918 l 1
 1290 896.666666667 1291 871.666666667 1291 843 c 0
 1291 771.019732634 1286 678.818974693 1286 606 c 0
 1286 569.897318784 1286.02581834 534.377362879 1292 506 c 1
 1039.60972301 431.676482849 761.61579815 382.488219758 452 342 c 1
 408.865402213 154.705035924 378.393790015 -14.7564073613 358 -200 c 1
 329.525020652 -187.619574197 299.293070175 -177.790099161 266 -172 c 1
 176 -172 l 1
 141.333333333 -170.666666667 110 -170 82 -170 c 128
 54 -170 28.6666666667 -167.333333333 6 -162 c 1
 82.5751081454 153.136021983 155.908589758 474.427352151 220 822 c 1
EndSplineSet
EndChar

StartChar: G
Encoding: 71 71 40
Width: 2028
Flags: HW
LayerCount: 2
Fore
SplineSet
1452 796 m 1
 1389.05823503 798.997226904 1327.84972855 805.947973218 1270 818 c 1
 1274 909.333333333 1289.33333333 990.666666667 1316 1062 c 1
 1286.11129504 1068.49754456 1254.76639869 1073 1219 1073 c 0
 1124.39036793 1073 1047.19418178 1048.20641896 970 1018 c 0
 792.183443145 947.654988497 647.178408767 827.030246897 541 686.5 c 128
 481.296074115 607.480098093 430.938898541 521.060572247 400.5 423.5 c 128
 387.5 381.833333333 380.666666667 344 380 310 c 0
 380 142.376535027 500.635426062 65 670 65 c 0
 765.333333333 65 858.833333333 86 950.5 128 c 128
 1042.16666667 170 1132 232 1220 314 c 1
 1148 282 l 1
 1014.57008524 270.397398716 892.012092596 266 760 266 c 1
 862 510 l 1
 1116.58706754 522.820931459 1342.77594804 534.373940187 1578.5 556 c 128
 1721.39174613 569.109334507 1839.30001028 592.958622816 1970 620 c 1
 1866.42665762 385.83418244 1791.54981337 153.394774226 1780 -170 c 1
 1629.83236197 -190.89288877 1489.3477133 -210.553842077 1348 -238 c 1
 1354.66666667 -143.333333333 1364.66666667 -56 1378 24 c 1
 1229.65283705 -75.5487540827 1042.16664642 -151.213336573 831 -185 c 128
 764.333333333 -195.666666667 698.333333333 -201 633 -201 c 0
 605.666666667 -201 578.666666667 -200 552 -198 c 1
 172.075065117 -198 45 47.4442755621 45 425 c 0
 45 471.693173838 46.9312872415 514.915941552 52 558 c 1
 129.199868375 836.387404138 298.254840634 1066.33189636 488.5 1240.5 c 128
 622.633992691 1363.2987257 784.737423216 1465.07456135 975.5 1523.5 c 128
 1065.83333333 1551.16666667 1158.66666667 1565 1254 1565 c 0
 1267 1565 1267 1565 1279 1565 c 128
 1287 1565 1295.33333333 1564.66666667 1304 1564 c 1
 1309.33333333 1564.66666667 1315 1565 1321 1565 c 128
 1330 1565 1330 1565 1338 1565 c 0
 1492.27245227 1565 1638.37333328 1518.33426361 1723 1446.5 c 128
 1779.10013798 1398.88011544 1780.89003036 1338.43474196 1791 1252.5 c 128
 1795.66666667 1212.83333333 1798 1171 1798 1127 c 0
 1798 1088.33333333 1796 1048 1792 1006 c 1
 1759.33333333 934 1733.33333333 865.333333333 1714 800 c 1
 1686 810 1656 815 1624 815 c 0
 1617.54455601 815 1608.45436404 814 1602 814 c 2
 1452 796 l 1
EndSplineSet
EndChar

StartChar: H
Encoding: 72 72 41
Width: 1874
Flags: HW
LayerCount: 2
Fore
SplineSet
1346 1506 m 1
 1481.17450779 1473.55811813 1676.5065115 1496.82567086 1816 1470 c 1
 1644 722 l 2
 1624.66666667 638 1606.66666667 547.666666667 1590 451 c 2
 1542 174 l 1
 1526.14150204 73.562846262 1510.80122576 -27.0825516625 1496 -128 c 1
 1024 -88 l 1
 1047.89768893 -5.15467839119 1068.29475994 88.2667398019 1096 176 c 1
 956 148 739.333333333 116 446 80 c 1
 435.539267771 12.0052405135 431.520107117 -52.2386074786 426 -124 c 1
 318.134528094 -97.0336320234 147.050121028 -118.546698941 40 -90 c 1
 165.703079138 402.88838925 263.037575766 923.466060657 364 1504 c 1
 468.230213411 1476.20527642 639.756792952 1505.79818855 744 1478 c 1
 711.659498092 1317.76751328 675.237536659 1169.08641252 638 1004 c 2
 536 552 l 1
 750.833254969 591.060591813 963.91851 635.061634698 1202 686 c 1
 1346 1506 l 1
EndSplineSet
EndChar

StartChar: I
Encoding: 73 73 42
Width: 1394
Flags: HW
LayerCount: 2
Fore
SplineSet
1040 -134 m 1
 685.597368376 -131.273825911 345.97908905 -136.332870995 22 -168 c 1
 29.4924342447 -96.8218746756 31.6052210408 -27.698189704 36 58 c 1
 149.86824648 124.83570989 279.500022049 169.230776015 412 210 c 1
 475.038802212 474.412753721 525.236221362 756.355725127 582 1068 c 1
 246 1062 l 1
 344 1398 l 1
 705.243871622 1454.31558455 1042.43588845 1508.11886195 1394 1580 c 1
 1424.45976491 1584.06130199 1445.63700436 1585.54801746 1439 1559 c 128
 1430.00871485 1523.03485941 1410.23422428 1488.711038 1396 1445.5 c 128
 1374.61542736 1380.58254733 1360 1304.04042983 1360 1212 c 1
 1224.9990849 1177.90885982 1098.1297911 1146.44583323 954 1120 c 1
 862 660 l 1
 829.278468167 513.921732888 805.917994423 383.689345374 780 246 c 1
 1078 252 l 1
 1078 241.60931462 1079 234.036328899 1079 224 c 0
 1077.60581441 184.962803551 1074.45994648 150.883710985 1068 116 c 1
 1046 -26 l 2
 1042 -54 1040 -90 1040 -134 c 1
EndSplineSet
EndChar

StartChar: J
Encoding: 74 74 43
Width: 1803
Flags: HW
LayerCount: 2
Fore
SplineSet
1635 1608 m 1
 1669.2757806 1467.22447255 1686.01906748 1326.46082208 1689 1164 c 1
 1671.76918191 664.306275347 1590.89368973 201.330360991 1321 -48 c 1
 1237.66666667 -131.333333333 1149.33333333 -191.833333333 1056 -229.5 c 128
 962.666666667 -267.166666667 869.333333333 -286 776 -286 c 0
 507.755699066 -286 314.561410775 -154.408226007 224.5 28.5 c 128
 192.166666667 94.1666666667 176 167.333333333 176 248 c 0
 176 308.666666667 187 372.666666667 209 440 c 128
 231 507.333333333 266.333333333 578 315 652 c 1
 351.941627227 582.73444895 437.869061535 531.76281302 508 494 c 128
 534 480 557 468.666666667 577 460 c 1
 567.579690663 439.981842659 567 421.653024975 567 395 c 0
 567 286.024589497 633.009651652 215.749121841 713.5 185 c 128
 743.166666667 173.666666667 775 168 809 168 c 256
 894.92155901 168 961.751389588 201.63476403 1016.5 245 c 128
 1194.48959906 385.981860644 1261 664.608054987 1261 990 c 1
 1169.20753333 983.200558025 1066.27379921 978.479736137 961 974 c 1
 931.272357424 1148.64990013 908.591464669 1316.61939792 891 1494 c 1
 1143.59067755 1525.88037678 1423.81326673 1534.67127317 1635 1608 c 1
EndSplineSet
EndChar

StartChar: K
Encoding: 75 75 44
Width: 1954
Flags: HW
LayerCount: 2
Fore
SplineSet
1232 398 m 1
 1383.35652087 345.354253609 1525.21258251 293.110241338 1678 244 c 1
 1432 -122 l 1
 687 198 l 1
 330 -132 l 1
 2 -102 l 1
 128.966343845 398.811689611 238.034773216 943.653452942 326 1494 c 1
 395.655966453 1448.72362181 518.032468477 1455.39442837 611.5 1476.5 c 128
 642.5 1483.5 669.333333333 1488.83333333 692 1492.5 c 128
 726.14889768 1498.02408639 764.84954986 1503.64852097 754 1468 c 1
 683 1144 l 1
 633.767583912 936.884318527 594.32393248 747.577697326 536 520 c 1
 809.748601202 788.380981571 1100.89952122 1071.06288786 1391 1319.5 c 128
 1489.59734572 1403.93708862 1590.24827604 1491.27843147 1690 1548 c 1
 1723.71241033 1385.05668343 1804.37583741 1239.81760943 1898 1126 c 1
 1762.01291633 1052.27206307 1616.03628906 948.821095059 1481.5 852 c 128
 1321.34977302 736.745443346 1147.70130168 601.742573389 994 478 c 1
 1232 398 l 1
EndSplineSet
EndChar

StartChar: L
Encoding: 76 76 45
Width: 1567
Flags: HW
LayerCount: 2
Fore
SplineSet
1436 380 m 1
 1453.65018673 259.978730225 1466.73483743 151.386463097 1480 32 c 1
 1400 -36 l 1
 1183.01361788 -84.5790407724 958.398768175 -139.532111461 733 -175.5 c 128
 701.666666667 -180.5 676.666666667 -183.333333333 658 -184 c 1
 432.020641605 -159.787925886 241.783503608 -75.6819325733 152 84.5 c 128
 122.666666667 136.833333333 108 197.333333333 108 266 c 0
 108 333.791710192 130.620574497 406.465525703 148.5 477.5 c 128
 234.418552822 818.85208824 349.446136082 1159.07608311 460.5 1478 c 128
 473.5 1515.33333333 484 1544.66666667 492 1566 c 128
 500 1587.33333333 504.666666667 1598 506 1598 c 2
 896 1542 l 1
 898.666666667 1539.33333333 900 1533.33333333 900 1524 c 0
 900 1459.4180982 883.527593267 1387.41051124 870.5 1316 c 128
 805.74251018 961.033018764 722.53475944 596.036489754 630 264 c 1
 630 242.353468569 1011.70225388 299.738073527 1042.5 305 c 128
 1173.54400257 327.389427574 1308.74900723 354.549801446 1436 380 c 1
EndSplineSet
EndChar

StartChar: M
Encoding: 77 77 46
Width: 2340
Flags: HW
LayerCount: 2
Fore
SplineSet
1996 -158 m 1
 1880.9751802 -130.935336517 1705.90825381 -149.614122135 1592 -122 c 1
 1664.92209246 138.836715352 1725.78168881 405.797688512 1782 692 c 1
 1526.86925977 425.139110793 1292.26564 135.176171367 1058 -178 c 1
 883.029434437 131.947858997 739.07279162 451.027985558 624 802 c 1
 532 426 472 108 444 -152 c 1
 337.759174843 -123.669113292 167.313558162 -144.089588046 62 -114 c 1
 157.515510523 244.906766813 233.738515061 614.82416982 306 1016 c 1
 266 1262 l 1
 276.052079946 1264.51301999 281.199161258 1315.9950438 284.5 1335.5 c 128
 293.096820469 1386.29939368 299.873323626 1446.27421915 308 1502 c 1
 336.159516126 1500.59202419 365.572079375 1500 396 1500 c 0
 542.010741094 1500 681.334153799 1509.65202715 834 1522 c 1
 926.677706209 1182.1817439 1033.77841197 887.088342237 1192 642 c 1
 1425.23245301 932.244830412 1659.39443101 1198.4515076 1922 1450 c 1
 2318 1452 l 1
 2144 686 l 1
 2082.59175475 400.21547404 2030.54361897 127.769938792 1996 -158 c 1
254 1340 m 1
 266 1262 l 1
 258.186061766 1260.04651544 255.164162655 1314.97050292 254 1340 c 1
EndSplineSet
EndChar

StartChar: N
Encoding: 78 78 47
Width: 1946
Flags: HW
LayerCount: 2
Fore
SplineSet
1516 1528 m 1
 1569.90687218 1512.59803652 1652.44688171 1516 1721 1516 c 128
 1791.77976285 1516 1870.5831648 1517.04928073 1928 1504 c 1
 1758 762 l 1
 1694.54239091 474.090477256 1641.74607587 204.476594196 1610 -86 c 1
 1352 -202 l 1
 1218 -42 l 1
 1220 -40 l 1
 1002.05059543 210.438756806 812.724733994 467.420991017 634 760 c 1
 552.003258929 420.93239503 485.405060852 110.807572009 450 -222 c 1
 363.801495833 -201.71799902 231.403420266 -205.998339074 133 -199.5 c 128
 97.6666666667 -197.166666667 70.6666666667 -193.333333333 52 -188 c 1
 150.94170289 186.779177612 232.559200339 578.124518043 308 1004 c 1
 292.201735133 1040.86261802 279.700774927 1075.6378302 266 1114 c 1
 316 1550 l 1
 448.439489529 1542.70975287 574.997623503 1535.00017389 698 1526 c 1
 888.374443995 1130.60692401 1084.37954344 778.455654799 1312 452 c 1
 1381.83472472 785.654795889 1446.9762988 1126.79973677 1516 1528 c 1
EndSplineSet
EndChar

StartChar: O
Encoding: 79 79 48
Width: 1964
Flags: HW
LayerCount: 2
Fore
SplineSet
34 518 m 1
 40.7337992929 555.035896111 44.7581014861 586.721931316 54 626 c 0
 95.7451297243 811.693852911 188.338089223 974.06864574 295.5 1104.5 c 128
 460.798984413 1305.69247817 689.407280465 1472.96377722 974 1549 c 128
 1061.33333333 1572.33333333 1149.33333333 1584 1238 1584 c 0
 1458.09593469 1584 1616.16249163 1504.68207747 1724 1388.5 c 128
 1861.23997011 1240.6402703 1922 1027.97762871 1922 748 c 1
 1884.29518457 556.575552447 1792.32152363 391.932341771 1685 259 c 128
 1518.04861671 52.2079456932 1285.49821601 -119.63958063 996 -198 c 128
 907.333333333 -222 818.666666667 -234 730 -234 c 0
 317.773825391 -234 145.95262332 -10.5022186711 71 325 c 128
 57 387.666666667 44.6666666667 452 34 518 c 1
402 364 m 0
 402 173.787810846 539.449548411 84 738 84 c 0
 974.385574485 84 1165.57654554 171.913589579 1305.5 277.5 c 128
 1408.07312269 354.901804237 1493.73166518 454.717662887 1543 580 c 128
 1566.33333333 639.333333333 1578 702 1578 768 c 0
 1578 963.843245855 1439.24478807 1056 1242 1056 c 0
 1005.84858951 1056 815.038053169 971.82579407 674.5 867.5 c 128
 570.494862687 790.293732424 485.608345961 689.964914326 437 561.5 c 128
 413.666666667 499.833333333 402 434 402 364 c 0
EndSplineSet
EndChar

StartChar: P
Encoding: 80 80 49
Width: 1678
Flags: HW
LayerCount: 2
Fore
SplineSet
440 -182 m 1
 333.7951374 -153.678703307 162.055383704 -178.281435654 56 -150 c 1
 148.643764508 202.644006838 223.311800216 572.246042603 294 972 c 1
 218 922 l 1
 186 1392 l 1
 448.504645178 1456.35597753 709.374969845 1517.98374101 990.5 1549.5 c 128
 1064.83333333 1557.83333333 1133.33333333 1562 1196 1562 c 0
 1379.55270875 1562 1559.40841354 1526.59158646 1650 1436 c 128
 1676.66666667 1409.33333333 1690 1379.33333333 1690 1346 c 0
 1690 1252.66666667 1670.66666667 1157.83333333 1632 1061.5 c 128
 1593.33333333 965.166666667 1534 862 1454 752 c 1
 1343.05281227 655.368578432 1245.53736713 583.40080105 1116 507.5 c 128
 909.145117865 386.295967499 712.114700513 278.83366319 486 148 c 1
 464.946929602 36.1555635108 453.796883292 -64.7264920182 440 -182 c 1
1248 1006 m 1
 1248 1075.39990512 1140.61365936 1086 1051 1086 c 0
 924.383104863 1086 808.710099036 1068.96895471 684 1048 c 1
 550 482 l 1
 732.567162353 582.411939294 907.601210237 683.174220841 1056 792 c 128
 1116 836 1162.33333333 875.833333333 1195 911.5 c 128
 1227.66666667 947.166666667 1245.33333333 978.666666667 1248 1006 c 1
EndSplineSet
EndChar

StartChar: Q
Encoding: 81 81 50
Width: 2000
Flags: HW
LayerCount: 2
Fore
SplineSet
1936 764 m 1
 1884.94573714 507.227089723 1764.94890369 320.14461869 1598 158 c 1
 1816 70 l 1
 1534 -226 l 1
 1238 -112 l 1
 1074 -193.333333333 909.333333333 -234 744 -234 c 0
 248.637198269 -234 87.6167104631 83.2256586626 50 540 c 1
 70.8295773139 746.807946188 159.417419571 920.14114398 264 1058 c 128
 432.787311312 1280.49236491 677.38450555 1463.13875955 979.5 1547 c 128
 1073.16666667 1573 1166.66666667 1586 1260 1586 c 0
 1741.42574578 1586 1931.57033462 1237.97419519 1936 764 c 1
1102 416 m 1
 1179.13448188 374.861609667 1250.49797302 337.724976682 1332 304 c 1
 1441.62197854 380.177985089 1532.60558844 489.527441098 1573.5 631 c 128
 1585.83333333 673.666666667 1592 716.666666667 1592 760 c 0
 1592 904.309993965 1507.78053644 991.418073416 1398.5 1031 c 128
 1356.16666667 1046.33333333 1307.33333333 1054 1252 1054 c 0
 1113.106308 1054 982.64260778 1016.57362278 877 970 c 128
 690.603529088 887.825211749 527.234539174 756.172275585 449.5 566.5 c 128
 424.5 505.5 412 440 412 370 c 0
 412 232.062722512 501.217583546 144.776950762 600.5 101.5 c 128
 639.5 84.5 682.666666667 74.6666666667 730 72 c 1
 808.227822697 72 880.049703998 83.532666758 946 104 c 1
 788 346 l 1
 890.910944057 369.748679398 997.374940568 394.538449347 1102 416 c 1
EndSplineSet
EndChar

StartChar: R
Encoding: 82 82 51
Width: 1760
Flags: HW
LayerCount: 2
Fore
SplineSet
1328 -196 m 1
 1085.5964516 -93.6518351189 843.383236734 -1.07972969448 608 110 c 1
 574.679530908 103.335906182 543.915165237 89.3050550791 510 78 c 1
 494.360353891 -5.4114459154 484.999451973 -87.3793157148 474 -174 c 1
 373.904060739 -154.934106807 241.975568199 -164.488999629 137.5 -152.5 c 128
 117.166666667 -150.166666667 100.666666667 -146.666666667 88 -142 c 1
 183.379978942 209.71367235 259.118565457 577.153266722 330 978 c 1
 303.351494103 963.464451329 277.932725723 946.957953577 254 932 c 1
 251.333333333 958.666666667 250 990 250 1026 c 128
 250 1062 248.666666667 1104 246 1152 c 1
 222 1400 l 1
 477.0625157 1466.76132961 738.572484077 1526.06133758 1018 1556 c 128
 1092.66666667 1564 1160.66666667 1568 1222 1568 c 0
 1399.46341108 1568 1556.71786268 1562.0414743 1644 1478.5 c 128
 1727.49556562 1398.58281576 1742.78776141 1256.49586895 1762 1106 c 1
 1718 1003.33333333 1627.33333333 893 1490 775 c 128
 1352.66666667 657 1164.66666667 527.333333333 926 386 c 1
 1580 156 l 1
 1328 -196 l 1
1280 1017 m 0
 1280 1087.63422114 1173.85774093 1096 1086 1096 c 0
 960.969115626 1096 845.256220168 1074.84385613 720 1056 c 1
 673.218774457 876.072209452 632.847166892 700.812251013 586 490 c 1
 756.609240382 586.482466975 934.548071768 691.037892151 1078.5 796.5 c 128
 1140.83333333 842.166666667 1190 883.833333333 1226 921.5 c 128
 1262 959.166666667 1280 991 1280 1017 c 0
EndSplineSet
EndChar

StartChar: S
Encoding: 83 83 52
Width: 1778
Flags: HW
LayerCount: 2
Fore
SplineSet
1126 944 m 1
 1128.4922334 956.461166995 1130 969.638869605 1130 984 c 0
 1130 1006.66666667 1121.33333333 1022 1104 1030 c 1
 1041.51519596 1013.69961634 980.156392538 970.156392538 939 929 c 128
 922.333333333 912.333333333 909.333333333 895.333333333 900 878 c 1
 1148.94363989 856.76310181 1361.4674226 825.354991054 1532 744 c 1
 1599.33333333 656.666666667 1644.66666667 568.666666667 1668 480 c 1
 1648.79592097 363.175185887 1577.96574134 271.564588894 1500.5 198 c 128
 1401.7310023 104.204980603 1271.63406485 25.8431706511 1132 -34 c 1
 974.822366692 -111.379757936 833.092397258 -184 598 -184 c 0
 417.898736252 -184 252.344699899 -154.919954702 74 -128 c 1
 180.730676391 -21.2693236086 267.139356174 101.836950698 364 242 c 1
 433.758004061 202.982811288 509.597795422 173 610 173 c 0
 784.390766157 173 941.176060791 209.033420001 1055.5 263 c 128
 1109.16666667 288.333333333 1151 315.333333333 1181 344 c 128
 1211 372.666666667 1227.33333333 398.666666667 1230 422 c 1
 1223.33333333 434 1208.66666667 448 1186 464 c 128
 1163.33333333 480 1132 496.666666667 1092 514 c 1
 1008.66666667 534 894.5 548.333333333 749.5 557 c 128
 604.5 565.666666667 424.666666667 570 210 570 c 1
 162 752 l 1
 156.711160912 828.688166777 149.288611597 913.315131843 144 990 c 1
 362.547646426 1144.26892689 619.982995488 1285.40102386 885 1395.5 c 128
 975.666666667 1433.16666667 1065.33333333 1465.33333333 1154 1492 c 1
 1295.40436634 1540.40870199 1425.28413734 1578.96492787 1572 1616 c 1
 1613.43018334 1481.35190413 1615.81998261 1302.54005216 1660 1170 c 1
 1496.41076165 1076.71357483 1323.33624021 1004.92259765 1126 944 c 1
EndSplineSet
EndChar

StartChar: T
Encoding: 84 84 53
Width: 1520
Flags: HW
LayerCount: 2
Fore
SplineSet
1471 1132 m 0
 1471 1125.33333333 1472 1118.66666667 1472 1112 c 1
 1303.0710046 1067.3245632 1123.22404249 1031.59258841 930 1006 c 1
 798 414 l 2
 752.478313645 209.152411403 719.807920179 17.4696324374 692 -188 c 1
 610.474850836 -167.618712709 483.008163447 -171.951540629 389 -165.5 c 128
 355 -163.166666667 329.333333333 -159.333333333 312 -154 c 1
 402.353111914 195.753981602 475.950440578 554.42305966 548 942 c 1
 373.328968472 908.850753141 212.496388101 877.564337972 50 838 c 1
 62.5859266583 982.738156571 76.4584469185 1124.64462768 92 1316 c 1
 466.328820728 1387.74635731 837.105082031 1465.34658455 1238 1546 c 1
 1334.38804136 1560.82892944 1420.4917545 1576.12593708 1514 1588 c 1
 1506.70110902 1442.02218044 1471 1284.72405177 1471 1132 c 0
EndSplineSet
EndChar

StartChar: U
Encoding: 85 85 54
Width: 1836
Flags: HW
LayerCount: 2
Fore
SplineSet
1302 1452 m 1
 1372.81497506 1434.95195045 1468.90427052 1428 1557 1428 c 0
 1619.54188858 1428 1686.14591668 1432.59227381 1738 1440 c 1
 1686.30705488 962.834352727 1607.15716566 498.580157925 1393 182 c 128
 1303.99401354 50.4259330588 1185.23831019 -53.0206244945 1027 -111.5 c 128
 950.333333333 -139.833333333 864.333333333 -154 769 -154 c 0
 536.054502396 -154 375.560350324 -54.8018852439 271 81.5 c 128
 165.031750895 219.637181869 103 418.277688114 103 656 c 0
 103 981.969741971 205.501847987 1262.40659144 338 1494 c 1
 416.249890244 1472.80732139 512.64518971 1453 622 1453 c 0
 662.240249193 1453 700.303357424 1455.13591709 738 1460 c 1
 688.83027908 1325.43023748 656.578184894 1150.50839347 639 980 c 128
 632.333333333 915.333333333 629 852 629 790 c 0
 629 613.263882811 656.826976997 447.613227497 753.5 369 c 128
 783.833333333 344.333333333 821.666666667 332 867 332 c 0
 913 332 959 352.833333333 1005 394.5 c 128
 1051 436.166666667 1093.66666667 502 1133 592 c 128
 1232.49575504 819.659778479 1279.40011115 1113.00166721 1302 1452 c 1
EndSplineSet
EndChar

StartChar: V
Encoding: 86 86 55
Width: 1562
Flags: HW
LayerCount: 2
Fore
SplineSet
454 -10 m 2
 448.578389844 17.1080507784 444.1436021 37.5691937013 436 62 c 1
 92 1556 l 1
 520 1522 l 1
 557.455386885 1202.29151909 594.543989077 895.713807519 632 576 c 1
 1196 1586 l 1
 1592 1372 l 1
 512 -314 l 1
 454 -10 l 2
EndSplineSet
EndChar

StartChar: W
Encoding: 87 87 56
Width: 2216
Flags: HW
LayerCount: 2
Fore
SplineSet
1917 1546 m 0
 1972.57755464 1546 2033.42460525 1548 2089 1548 c 256
 2137.61946479 1548 2188.38274993 1547.8369271 2226 1540 c 1
 1858 -224 l 1
 1755 -200 1755 -200 1652 -176 c 128
 1583.33333333 -160 1514.66666667 -142.666666667 1446 -124 c 1
 1346 68 l 1
 1046 492 l 1
 300 -258 l 1
 36 -64 l 1
 186 608 l 1
 248.658788395 899.604361376 297.459985804 1180.63488525 334 1476 c 1
 368.594208766 1469.71014386 414.085152774 1469 458 1469 c 256
 508.244221304 1469 563.757938582 1471 614 1471 c 256
 657.465293084 1471 702.205138684 1470.43711644 736 1464 c 1
 502 502 l 1
 1196 1306 l 1
 1622 436 l 1
 1634 500 l 1
 1702.18154767 823.862351445 1748.24613024 1165.27673956 1798 1552 c 1
 1831.73140397 1545.86701746 1874.63476958 1546 1917 1546 c 0
EndSplineSet
EndChar

StartChar: X
Encoding: 88 88 57
Width: 1844
Flags: HW
LayerCount: 2
Fore
SplineSet
2 18 m 1
 218.031901419 214.052072386 413.073652946 397.97768721 612 594 c 1
 564 682 l 1
 452.205868196 926.882383952 319.552729353 1178.98736481 190 1404 c 1
 618 1614 l 1
 668.651898135 1516.07299694 714.569058708 1393.61271204 761 1284.5 c 128
 812.826024711 1162.70884193 866.447719334 1027.92046778 930 922 c 1
 1060.94472881 1057.46006428 1197.26092278 1223.38492274 1325 1366.5 c 128
 1383.30271879 1431.82063864 1446.25656102 1504.46511305 1500 1560 c 1
 1570.17614842 1483.97583922 1659.22775932 1439.31936408 1744.5 1378 c 128
 1774.16666667 1356.66666667 1804.66666667 1330.66666667 1836 1300 c 1
 1613.68724348 1061.80776087 1366.11304773 802.869569267 1130 578 c 1
 1247.15589857 376.491854454 1366.34137938 180.314352176 1498 -32 c 1
 1450.50749969 -54.9802420879 1410.54047122 -77.1830650617 1368 -110 c 2
 1266 -190 l 1
 1217.9196672 -207.171547427 1172.78375067 -225.429444147 1122 -248 c 1
 1103.93274891 -223.157529758 1085.50618942 -196.784593595 1065 -165 c 2
 926 43.5 l 130
 883.132635908 107.801046138 836.209873998 175.580252005 802 244 c 1
 548 12 l 1
 455.490882624 -74.7986780313 369.016901615 -151.313802578 294 -238 c 1
 228.594772731 -172.594772731 134.247032121 -104.112797234 63 -42 c 128
 37 -19.3333333333 16.6666666667 0.666666666667 2 18 c 1
EndSplineSet
EndChar

StartChar: Y
Encoding: 89 89 58
Width: 1732
Flags: HW
LayerCount: 2
Fore
SplineSet
868 888 m 1
 1060.72731314 1104.81822728 1248.55640353 1368.15039022 1440 1586 c 1
 1508.96569261 1512.97750194 1597.99311689 1466.96191351 1685 1410.5 c 128
 1716.33333333 1390.16666667 1748.66666667 1366 1782 1338 c 1
 1572.45469485 1123.11596096 1377.90076669 911.948538305 1170 696 c 1
 1036 566 l 1
 796.729804178 289.148098028 585.122207341 19.0022017995 376 -268 c 1
 360.040335909 -238.740615833 342.288039233 -222.288039233 320 -200 c 1
 168 -120 l 1
 117.396044688 -96.1863739707 73.1835377634 -69.510122658 24 -40 c 1
 219.086249401 157.814728414 399.374152712 351.598220523 590 558 c 1
 421.324182423 840.817348269 259.547385925 1102.07062701 82 1362 c 1
 221.99509395 1428.31346556 353.776659723 1501.06599583 502 1590 c 1
 589.435215243 1391.28360172 703.565934029 1176.36700071 808 989 c 128
 830.666666667 948.333333333 850.666666667 914.666666667 868 888 c 1
EndSplineSet
EndChar

StartChar: Z
Encoding: 90 90 59
Width: 2016
Flags: HW
LayerCount: 2
Fore
SplineSet
158 -238 m 1
 104.195399091 -99.4531526587 49.807010415 21.4469481815 -4 160 c 1
 1272 1042 l 1
 930.636176804 992.864298176 616.874658462 938.167331429 306 866 c 1
 312 1396 l 1
 724.295610696 1460.75155424 1133.19330621 1520.7271067 1560 1568 c 0
 1662.04888937 1580.00575169 1761.73932852 1587.42116396 1864 1592 c 1
 1910 1326 l 1
 1968 1220 l 1
 2016 1094 l 1
 700 218 l 1
 1744 364 l 1
 1776 12 l 1
 158 -238 l 1
EndSplineSet
EndChar

StartChar: backslash
Encoding: 92 92 60
Width: 1368
Flags: HW
LayerCount: 2
Fore
SplineSet
438 1708 m 1
 696.932746257 1082.65299017 960.006649267 515.215938428 1262 -20 c 1
 934 -180 l 1
 664.167753632 359.664492735 393.729008433 926.852872837 104 1538 c 1
 438 1708 l 1
EndSplineSet
EndChar

StartChar: a
Encoding: 97 97 61
Width: 1834
Flags: HW
LayerCount: 2
Fore
SplineSet
1555 -157 m 0
 1462.66837507 -157 1368.17837201 -161 1276 -161 c 0
 1244 -161 1218 -160 1198 -158 c 1
 1187.66321589 -72.7215311267 1185.83536435 9.75488675028 1172 90 c 1
 975.978617258 46.9183774193 762.557282185 27.0922608212 508 -2 c 1
 422 -180 l 1
 339.524135589 -159.381033897 223.77864483 -164.108398362 129 -157 c 128
 83.9575835322 -153.621818765 33.7251441403 -151.241714713 0 -140 c 1
 194.001270299 173.825584308 367.95415257 451.287006942 540 735.5 c 128
 653.198506115 922.499492944 747.400906573 1076.43051408 830.5 1254.5 c 128
 860.833333333 1319.5 883 1376.83333333 897 1426.5 c 128
 911 1476.16666667 918 1522 918 1564 c 0
 918 1595.33333333 914.666666667 1625.33333333 908 1654 c 1
 967.333333333 1638.66666667 1042 1630.66666667 1132 1630 c 1
 1110 1602 l 1
 1148.66666667 1604 1185 1605 1219 1605 c 0
 1271 1605 1316 1602 1354 1596 c 1
 1392.4410991 1253.52475344 1444.78635423 906.762322901 1496 526 c 1
 1541.54455601 526 1584.45436404 522 1630 522 c 1
 1631.33333333 512.666666667 1632 502.833333333 1632 492.5 c 128
 1632 477 1632 477 1632 458 c 0
 1632 350.016078649 1621.98302305 225.750427297 1594.5 145.5 c 128
 1586.16666667 121.166666667 1576 108 1564 106 c 1
 1582.88813189 11.5593405498 1604.85342893 -75.2099750666 1634 -160 c 1
 1612.66666667 -158 1586.33333333 -157 1555 -157 c 0
738 438 m 1
 868.541236547 460.952305327 992.053472727 490.354060952 1124 518 c 1
 1041 1023 l 1
 954.49953371 817.870322797 843.600191591 620.069295847 738 438 c 1
EndSplineSet
EndChar

StartChar: b
Encoding: 98 98 62
Width: 1904
Flags: HW
LayerCount: 2
Fore
SplineSet
254 980 m 1
 248.542554882 1143.72335354 228 1311.45506898 228 1480 c 1
 570.052431683 1564.07992734 884.571407144 1642 1289 1642 c 0
 1406.94439633 1642 1506.2242849 1632.5582623 1586 1594 c 0
 1696.0057872 1539.53111508 1796 1438.50040553 1796 1293 c 0
 1796 1250.33333333 1784.16666667 1207.16666667 1760.5 1163.5 c 128
 1702.24946327 1056.02365758 1604.37861805 971.428605962 1498.5 893 c 128
 1435.5 846.333333333 1364.66666667 798.666666667 1286 750 c 1
 1459.81051295 747.651209284 1595.87771356 717.497829152 1686.5 645 c 128
 1751.68411217 592.852710264 1790 519.468226903 1790 414 c 1
 1788 382 1770.83333333 345.5 1738.5 304.5 c 128
 1656.76887181 200.861559105 1527.78988477 117.786469469 1392.5 46 c 128
 1130.38765187 -93.0800214559 797.56504264 -195.036246447 426 -226 c 1
 362.375332277 -228.766289901 295.248779534 -231.441224332 230 -234 c 1
 88 -72 l 1
 201.831711319 255.266170041 259.559343423 649.708585802 330 1016 c 1
 305.813844985 1003.90692249 280.522175044 992.055534111 254 980 c 1
1294 1205 m 0
 1294 1247.61078357 1205.99495218 1242 1157 1242 c 0
 1011.873059 1242 884.585911935 1221.39882064 736 1194 c 1
 646 802 l 1
 820.081224605 873.680504249 984.973635155 946.39108255 1123.5 1031 c 128
 1179.16666667 1065 1221.5 1096.5 1250.5 1125.5 c 128
 1279.5 1154.5 1294 1181 1294 1205 c 0
998 406 m 0
 848.90393969 406 711.988836303 396.998705658 574 381 c 1
 553.516093376 277.300222717 538.180654822 183.354911162 524 77 c 1
 719.861312612 101.720359844 912.918233173 141.768168381 1078.5 195.5 c 128
 1160.89647386 222.237928602 1239.75111591 251.625881925 1294 294.5 c 128
 1314.66666667 310.833333333 1325 326.666666667 1325 342 c 0
 1325 365.333333333 1296 381.833333333 1238 391.5 c 128
 1180 401.166666667 1100 406 998 406 c 0
EndSplineSet
EndChar

StartChar: c
Encoding: 99 99 63
Width: 1886
Flags: HW
LayerCount: 2
Fore
SplineSet
1234 786 m 1
 1240.21432045 873.000486291 1253.43461986 950.97399375 1278 1016 c 1
 1229.33333333 1041.33333333 1173.66666667 1054 1111 1054 c 0
 1065.66666667 1054 1015.33333333 1047.33333333 960 1034 c 1
 783.05158305 966.401728356 638.073333827 846.430321145 531 709.5 c 128
 470.571829969 632.221667171 418.160392977 546.911998544 387.5 451 c 128
 374.5 410.333333333 368 373.666666667 368 341 c 0
 368 172.0271606 486.334659214 85 663 85 c 0
 815.194784204 85 935.605156946 135.399901903 1037 200.5 c 128
 1163.59862474 281.782071567 1269.6349866 393.736556625 1360 520 c 1
 1780 394 l 1
 1669.91777392 213.465149232 1487.16778954 74.942635624 1292 -24.5 c 128
 1161.19010722 -91.1507548905 1012.84606884 -146.068733817 852.5 -176 c 128
 777.5 -190 704.666666667 -197 634 -197 c 0
 345.262306915 -197 156.402796681 -81.5816421167 69 126 c 128
 37 202 21 294 21 402 c 0
 21 612.353179707 106.716102799 794.003706188 198.5 938 c 128
 310.190484045 1113.22698694 466.931853381 1274.62123559 640 1390 c 128
 790.263386353 1490.1755909 979.527107656 1580 1208 1580 c 0
 1464.81926404 1580 1670.83095739 1504.78349855 1767 1343.5 c 128
 1799 1289.83333333 1815 1226.66666667 1815 1154 c 0
 1815 1038.34385612 1781.09986593 945.664711753 1738 853 c 1
 1596.18581842 822.337474252 1428.69949661 803.77737064 1276 789 c 128
 1255.33333333 787 1241.33333333 786 1234 786 c 1
EndSplineSet
EndChar

StartChar: d
Encoding: 100 100 64
Width: 1766
Flags: HW
LayerCount: 2
Fore
SplineSet
1728 1222 m 1
 1733.45208119 1164.75314752 1739.81342905 1124.57713966 1748 1070 c 1
 1672.68836467 878.708446273 1544.21863904 707.452179992 1409 558 c 128
 1178.31363172 303.030856114 892.415877408 75.5455426889 589.5 -106 c 128
 490.5 -165.333333333 394 -216.666666667 300 -260 c 1
 110 -104 l 1
 186.121557641 219.093722432 250.048474632 560.001559632 318 936 c 1
 238 878 l 1
 238 1037.99615359 224.21270822 1206.51104246 204 1348 c 1
 420 1424 614.333333333 1480.66666667 787 1518 c 128
 959.666666667 1555.33333333 1116 1575.33333333 1256 1578 c 1
 1430.37410138 1578 1563.74650294 1557.6732173 1646 1482 c 128
 1709.39201019 1423.67935063 1728 1339.17103934 1728 1222 c 1
1264 947 m 0
 1264 1047.52612002 1182.46806861 1082 1074 1082 c 0
 942.864046406 1082 837.580738988 1056.20018948 712 1024 c 1
 688.006225462 924.025939426 665.687891629 833.661992011 644 732 c 1
 616 616 l 2
 580.996464309 469.950764877 554.136715969 338.983210889 528 196 c 1
 722.948707652 304.090372559 901.896874433 446.268541066 1047.5 600.5 c 128
 1122.49251521 679.936516116 1192.52168218 762.997421843 1237.5 855.5 c 128
 1255.16666667 891.833333333 1264 922.333333333 1264 947 c 0
EndSplineSet
EndChar

StartChar: e
Encoding: 101 101 65
Width: 1750
Flags: HW
LayerCount: 2
Fore
SplineSet
1342 628 m 0
 1342 604.38736183 1342.85989175 582.840649525 1346 564 c 1
 1066.04554523 477.743762583 764.35172179 416.448643671 424 368 c 1
 407.846675648 287.233378242 424.452865579 176.092900055 462.5 131 c 128
 471.5 120.333333333 482.666666667 114 496 112 c 1
 535.333333333 114 583.5 122.833333333 640.5 138.5 c 128
 800.929782704 182.594735597 951.159456421 244.556274405 1118.5 315.5 c 128
 1221.5 359.166666667 1338.66666667 410 1470 468 c 1
 1487.20274248 387.720535073 1521.95366496 302.29075793 1553 224 c 128
 1568.33333333 185.333333333 1585.33333333 147.333333333 1604 110 c 1
 1361.33333333 -6 1145.33333333 -92.3333333333 956 -149 c 128
 766.666666667 -205.666666667 601.333333333 -234 460 -234 c 0
 272.876502609 -234 194.605316496 -89.9826468638 153.5 57 c 128
 118.624510022 181.706297497 110 330.584700955 110 486 c 1
 101.752853764 565.722413611 91.5469930615 642.151782958 76 716 c 1
 152 768 l 1
 200.94985845 890.374646125 264 1014.76769083 264 1186 c 1
 276 1382 l 1
 634.459404763 1449.02899439 984.472778669 1522.36581326 1360 1592 c 1
 1477.57880466 1612.22861155 1586.25391309 1634.85243157 1702 1652 c 1
 1669.64891251 1515.66327415 1662 1346.15658583 1662 1182 c 1
 1327.26669675 1110.45395045 1008.71040377 1053.41312468 646 1006 c 1
 605.82438934 904.444984165 573.336707669 814.108604555 538 724 c 1
 790.497472972 779.426274555 1036.07284417 850.84264314 1352 940 c 1
 1352.66666667 934.666666667 1353 929.333333333 1353 924 c 128
 1353 916 1353 916 1353 906 c 0
 1353 814.131376232 1342 720.689703873 1342 628 c 0
EndSplineSet
EndChar

StartChar: f
Encoding: 102 102 66
Width: 1618
Flags: HW
LayerCount: 2
Fore
SplineSet
1626 1646 m 1
 1626 1491.67940693 1584 1329.39024213 1584 1176 c 1
 1274.25347459 1091.18845137 937.784932717 1047.60175054 586 1002 c 1
 520 716 l 1
 642.984169272 738.65497855 757.733242908 775.247681534 884 810 c 2
 1278 918 l 1
 1280.99408068 897.041435251 1282 872.316139656 1282 847 c 0
 1282 776.754065508 1276 684.660953819 1276 613 c 0
 1276 574.344402716 1276.61882723 535.5246911 1284 506 c 1
 1029.71313884 432.471269063 749.041433631 382.726390479 440 342 c 1
 401.415400726 154.751209406 364.873240835 -16.0816749027 348 -200 c 1
 246.377418689 -151.667308889 130.669009018 -140.191115582 -6 -162 c 1
 77.0309585353 151.186948861 142.171372124 474.226116882 208 822 c 0
 242.096238655 1003.84660616 177.057739402 1189.59413264 200 1376 c 1
 668.182275053 1464.16419465 1148.624609 1562.64874125 1626 1646 c 1
EndSplineSet
EndChar

StartChar: g
Encoding: 103 103 67
Width: 2028
Flags: HW
LayerCount: 2
Fore
SplineSet
1270 818 m 1
 1276.41510219 903.962369299 1290.35755641 981.244865154 1314 1048 c 1
 1280 1058.66666667 1242 1064 1200 1064 c 0
 1114.19560954 1064 1040.7613932 1043.8335245 970 1018 c 1
 743.592018027 927.436807211 563.311695489 759.362918247 454.5 554 c 128
 416.953360193 483.137327689 382 402.394292104 382 310 c 0
 382 143.023083813 501.351580122 65 670 65 c 0
 767.333333333 65 862.166666667 86.5 954.5 129.5 c 128
 1046.83333333 172.5 1135.33333333 234 1220 314 c 1
 1148 282 l 1
 1014.57008524 270.397398716 892.012092596 266 760 266 c 1
 862 510 l 1
 1100.56950565 524.58503528 1294.20966673 537.218007329 1494 546 c 1
 1666 564 l 1
 1775.43130421 577.345281001 1873.03379108 598.460542096 1974 620 c 1
 1891.29232556 440.800038715 1828.65001015 266.155846142 1799 41.5 c 128
 1790.33333333 -24.1666666667 1784 -94.6666666667 1780 -170 c 1
 1631.75941805 -191.177225993 1489.60649563 -211.027334166 1348 -238 c 1
 1354.66666667 -143.333333333 1364.66666667 -56 1378 24 c 1
 1236.66666667 -55.3333333333 1100.33333333 -116.166666667 969 -158.5 c 128
 837.666666667 -200.833333333 716 -222 604 -222 c 0
 376.134454241 -222 209.998581809 -156.879413085 109.5 -36 c 128
 23.1580501231 67.8518557959 -17.3292308152 217.839648014 8.5 407.5 c 128
 35.8765584684 608.522157896 127.179832941 789.593391429 229.5 936.5 c 128
 410.770320133 1196.75962164 673.325678664 1413.83253132 1011.5 1516 c 128
 1121.83333333 1549.33333333 1237 1566 1357 1566 c 0
 1590.9445711 1566 1730.11860465 1508.74710656 1775.5 1323 c 128
 1789.83333333 1264.33333333 1797 1191.66666667 1797 1105 c 0
 1797 1079 1797 1079 1797 1054 c 128
 1797 1037.33333333 1796.66666667 1021.33333333 1796 1006 c 1
 1763.31393522 938.113557761 1737.07731729 873.558948862 1714 800 c 1
 1680.66666667 806.666666667 1645.33333333 810 1608 810 c 0
 1550.43981799 810 1494.14332358 805 1434 805 c 0
 1376.14711239 805 1323.06634167 808.565983703 1270 818 c 1
EndSplineSet
EndChar

StartChar: h
Encoding: 104 104 68
Width: 1826
Flags: HW
LayerCount: 2
Fore
SplineSet
1346 1506 m 1
 1483.40152159 1475.46632854 1678.116289 1500.64082467 1816 1470 c 1
 1723.3770556 1062.84497356 1620.90028071 637.560392181 1546 219 c 128
 1523.33333333 92.3333333333 1506.66666667 -23.3333333333 1496 -128 c 1
 1401.58187964 -107.018195475 1274.48871865 -112.309566804 1168.5 -105 c 128
 1118.51926893 -101.55305303 1063.07289123 -98.9404095433 1024 -88 c 1
 1096 176 l 1
 959.333333333 148 742.666666667 116 446 80 c 1
 435.539267771 12.0052405135 431.520107117 -52.2386074786 426 -124 c 1
 318.134528094 -97.0336320234 147.050121028 -118.546698941 40 -90 c 1
 165.703079138 402.88838925 263.037575766 923.466060657 364 1504 c 1
 468.230213411 1476.20527642 639.756792952 1505.79818855 744 1478 c 1
 693.360222523 1209.60917937 619.560706547 925.939363223 560 663.5 c 128
 549.333333333 616.5 541.333333333 579.333333333 536 552 c 1
 752.888602416 590.793083359 962.584607316 634.776241565 1202 686 c 1
 1346 1506 l 1
EndSplineSet
EndChar

StartChar: i
Encoding: 105 105 69
Width: 786
Flags: HW
LayerCount: 2
Fore
SplineSet
660 1482 m 1
 694.208580279 1474.39809327 730.616604761 1472.33833952 774 1468 c 1
 600 696 l 2
 536.83874507 414.113658555 484.005104933 151.245178659 452 -132 c 1
 369.649366732 -111.412341683 243.02518383 -113.828618142 149 -107.5 c 128
 114.333333333 -105.166666667 87.3333333333 -101.333333333 68 -96 c 1
 190.574511492 390.985221332 291.68745555 918.129100999 390 1492 c 1
 421.333333333 1482.66666667 471.666666667 1478 541 1478 c 0
 581.0290721 1478 619.372299544 1479.61013527 660 1482 c 1
EndSplineSet
EndChar

StartChar: j
Encoding: 106 106 70
Width: 1803
Flags: HW
LayerCount: 2
Fore
SplineSet
1635 1608 m 1
 1669.2757806 1467.22447255 1686.01906748 1326.46082208 1689 1164 c 1
 1671.76918191 664.306275347 1590.89368973 201.330360991 1321 -48 c 1
 1237.66666667 -131.333333333 1149.33333333 -191.833333333 1056 -229.5 c 128
 962.666666667 -267.166666667 869.333333333 -286 776 -286 c 0
 507.755699066 -286 314.561410775 -154.408226007 224.5 28.5 c 128
 192.166666667 94.1666666667 176 167.333333333 176 248 c 0
 176 308.666666667 187 372.666666667 209 440 c 128
 231 507.333333333 266.333333333 578 315 652 c 1
 351.941627227 582.73444895 437.869061535 531.76281302 508 494 c 128
 534 480 557 468.666666667 577 460 c 1
 567.579690663 439.981842659 567 421.653024975 567 395 c 0
 567 286.024589497 633.009651652 215.749121841 713.5 185 c 128
 743.166666667 173.666666667 775 168 809 168 c 256
 894.92155901 168 961.751389588 201.63476403 1016.5 245 c 128
 1194.48959906 385.981860644 1261 664.608054987 1261 990 c 1
 1169.20753333 983.200558025 1066.27379921 978.479736137 961 974 c 1
 931.272357424 1148.64990013 908.591464669 1316.61939792 891 1494 c 1
 1143.59067755 1525.88037678 1423.81326673 1534.67127317 1635 1608 c 1
EndSplineSet
EndChar

StartChar: k
Encoding: 107 107 71
Width: 1954
Flags: HW
LayerCount: 2
Fore
SplineSet
1232 398 m 1
 1383.35652087 345.354253609 1525.21258251 293.110241338 1678 244 c 1
 1432 -122 l 1
 687 198 l 1
 330 -132 l 1
 2 -102 l 1
 128.966343845 398.811689611 238.034773216 943.653452942 326 1494 c 1
 395.655966453 1448.72362181 518.032468477 1455.39442837 611.5 1476.5 c 128
 642.5 1483.5 669.333333333 1488.83333333 692 1492.5 c 128
 726.14889768 1498.02408639 764.84954986 1503.64852097 754 1468 c 1
 683 1144 l 1
 633.767583912 936.884318527 594.32393248 747.577697326 536 520 c 1
 809.748601202 788.380981571 1100.89952122 1071.06288786 1391 1319.5 c 128
 1489.59734572 1403.93708862 1590.24827604 1491.27843147 1690 1548 c 1
 1723.71241033 1385.05668343 1804.37583741 1239.81760943 1898 1126 c 1
 1762.01291633 1052.27206307 1616.03628906 948.821095059 1481.5 852 c 128
 1321.34977302 736.745443346 1147.70130168 601.742573389 994 478 c 1
 1232 398 l 1
EndSplineSet
EndChar

StartChar: l
Encoding: 108 108 72
Width: 1593
Flags: HW
LayerCount: 2
Fore
SplineSet
1436 380 m 1
 1453.65018673 259.978730225 1466.73483743 151.386463097 1480 32 c 1
 1400 -36 l 1
 1183.01361788 -84.5790407724 958.398768175 -139.532111461 733 -175.5 c 128
 701.666666667 -180.5 676.666666667 -183.333333333 658 -184 c 1
 432.020641605 -159.787925886 241.783503608 -75.6819325733 152 84.5 c 128
 122.666666667 136.833333333 108 197.333333333 108 266 c 0
 108 333.791710192 130.620574497 406.465525703 148.5 477.5 c 128
 234.418552822 818.85208824 349.446136082 1159.07608311 460.5 1478 c 128
 473.5 1515.33333333 484 1544.66666667 492 1566 c 128
 500 1587.33333333 504.666666667 1598 506 1598 c 2
 896 1542 l 1
 899.333333333 1538.66666667 900.666666667 1532.66666667 900 1524 c 0
 848.629709933 1202.93568708 761.431976096 871.774042906 693.5 556.5 c 128
 672.01608976 456.792621708 649.152022613 352.795741208 630 264 c 1
 630 242.353468569 1011.70225388 299.738073527 1042.5 305 c 128
 1173.54400257 327.389427574 1308.74900723 354.549801446 1436 380 c 1
EndSplineSet
EndChar

StartChar: m
Encoding: 109 109 73
Width: 2332
Flags: HW
LayerCount: 2
Fore
SplineSet
1990 -158 m 1
 1874.9751802 -130.935336517 1699.90825381 -149.614122135 1586 -122 c 1
 1658.44112276 137.116323732 1720.61752954 404.2581654 1772 692 c 1
 1520.39541849 422.63509509 1285.62529169 133.117649941 1048 -178 c 1
 873.469240834 131.168773379 728.449003074 450.236451924 616 802 c 1
 538.003433655 476.249634675 473.686366285 172.10532466 434 -152 c 1
 339.149203364 -128.287300841 207.401393622 -133.440139362 103 -123 c 128
 83 -121 66.6666666667 -118 54 -114 c 1
 146.625734016 244.924719314 226.256278247 614.973599923 296 1016 c 1
 282.365453931 1127.80327776 273.29755735 1226.97076253 260 1340 c 1
 298 1502 l 1
 326.159516126 1500.59202419 355.572079375 1500 386 1500 c 0
 533.168520073 1500 671.370232191 1509.6744388 826 1522 c 1
 920.492820117 1184.18816808 1028.34681708 889.726560225 1182 642 c 1
 1414.52394635 931.363133238 1653.84279412 1198.14568367 1914 1450 c 1
 2310 1452 l 1
 2138 686 l 2
 2073.4317199 401.899567572 2021.70362408 130.502979156 1990 -158 c 1
EndSplineSet
EndChar

StartChar: n
Encoding: 110 110 74
Width: 1936
Flags: HW
LayerCount: 2
Fore
SplineSet
318 1007 m 1
 302.329342363 1043.56486782 273.57227881 1075.99761933 260 1114 c 1
 310 1550 l 1
 442.439489529 1542.70975287 568.997623503 1535.00017389 692 1526 c 1
 902.666666667 1098.66666667 1108.66666667 740.666666667 1310 452 c 1
 1376.28613693 787.329869194 1441.10664868 1127.55739547 1510 1528 c 1
 1570.3662797 1492.49042371 1698.28297084 1500.36151816 1790.5 1501.5 c 128
 1835.10341037 1502.05065939 1882.02028613 1504 1922 1504 c 1
 1754 762 l 2
 1678.66666667 430.666666667 1628.66666667 148 1604 -86 c 1
 1346 -202 l 1
 1212 -42 l 1
 1214 -40 l 1
 996.050595429 210.438756806 806.724733994 467.420991017 628 760 c 1
 545.762623363 419.937334445 482.836518688 109.875705151 444 -222 c 1
 331.924027278 -196.382634806 185.741080497 -188 50 -188 c 1
 149.117439614 188.946626409 241.363425209 578.808344027 318 1007 c 1
EndSplineSet
EndChar

StartChar: o
Encoding: 111 111 75
Width: 2010
Flags: HW
LayerCount: 2
Fore
SplineSet
772 -234 m 0
 294.628700936 -234 116.616761529 80.3433693405 78 518 c 1
 81.3683690256 555.052059281 89.1374839397 587.112408992 96 626 c 1
 159.170492404 912.523304831 332.097366438 1133.8955356 528.5 1295 c 128
 664.521443376 1406.57519318 826.610389337 1497.00732343 1015 1548 c 128
 1103.66666667 1572 1193.33333333 1584 1284 1584 c 0
 1610.30157055 1584 1800.02662927 1416.15712845 1895 1184 c 128
 1939.75786602 1074.59188306 1966 943.460871025 1966 795 c 0
 1966 779.104118625 1965.32386427 762.562507005 1964 748 c 1
 1928.90772004 557.916816908 1838.29471879 394.920969521 1733 263 c 128
 1566.70178723 54.6493656064 1331.94989072 -118.679025939 1041.5 -197.5 c 128
 951.833333333 -221.833333333 862 -234 772 -234 c 0
1284 1056 m 0
 1050.32589062 1056 861.148025458 971.28947306 720.5 869 c 128
 615.278902583 792.475565515 528.766120238 690.869468227 479.5 562.5 c 128
 455.833333333 500.833333333 444 434.666666667 444 364 c 0
 444 170.648514047 585.246349315 84 780 84 c 0
 1017.73809826 84 1208.78947169 173.043858138 1349 279.5 c 128
 1450.68764073 356.707282775 1536.8754895 456.767560027 1585.5 581.5 c 128
 1608.5 640.5 1620 702.666666667 1620 768 c 0
 1620 963.290668476 1480.47736344 1056 1284 1056 c 0
EndSplineSet
EndChar

StartChar: p
Encoding: 112 112 76
Width: 1676
Flags: HW
LayerCount: 2
Fore
SplineSet
436 -182 m 1
 329.7951374 -153.678703307 158.055383704 -178.281435654 52 -150 c 1
 144.629538535 202.589856358 221.308828461 572.229236812 292 972 c 1
 214 922 l 1
 182 1392 l 1
 390 1442.66666667 578.833333333 1483.66666667 748.5 1515 c 128
 918.166666667 1546.33333333 1066.66666667 1562 1194 1562 c 0
 1381.06606888 1562 1561.81437904 1528.08789548 1648.5 1431 c 128
 1673.5 1403 1686 1371.66666667 1686 1337 c 0
 1686 1245.66666667 1666.33333333 1152.33333333 1627 1057 c 128
 1587.66666667 961.666666667 1528.66666667 860 1450 752 c 1
 1339.33133245 655.61116052 1242.20533383 583.507086906 1113.5 507.5 c 128
 907.279515023 385.716249029 710.865155076 278.447464169 484 148 c 1
 462.952094712 36.1830031551 449.791287865 -64.7740531452 436 -182 c 1
1244 1011 m 0
 1244 1074.84242256 1131.2500943 1086 1049 1086 c 0
 920.576276344 1086 807.314630987 1069.03459121 680 1048 c 1
 548 482 l 1
 731.196554275 584.408011707 907.941250828 685.362146445 1057 795.5 c 128
 1117 839.833333333 1163.16666667 880 1195.5 916 c 128
 1227.83333333 952 1244 983.666666667 1244 1011 c 0
EndSplineSet
EndChar

StartChar: q
Encoding: 113 113 77
Width: 2014
Flags: HW
LayerCount: 2
Fore
SplineSet
1952 764 m 1
 1900.92672343 507.131461939 1773.84392036 324.235802411 1610 158 c 1
 1832 70 l 1
 1550 -226 l 1
 1250 -112 l 1
 1086 -193.333333333 921.333333333 -234 756 -234 c 0
 261.636502196 -234 99.3734817881 83.5096153029 62 540 c 1
 84.2296033512 747.476297945 172.94581961 920.422590734 278 1059.5 c 128
 445.952834042 1281.84664961 690.183402215 1464.50043561 992 1547.5 c 128
 1085.33333333 1573.16666667 1178.66666667 1586 1272 1586 c 0
 1770.71450169 1586 1921.73202591 1230.99160028 1952 764 c 1
800 346 m 1
 904.377753163 370.087173807 1010.47985242 394.761452331 1118 416 c 1
 1195.33333333 372.666666667 1270.66666667 335.333333333 1344 304 c 1
 1453.62197854 380.177985089 1544.60558844 489.527441098 1585.5 631 c 128
 1597.83333333 673.666666667 1604 716.666666667 1604 760 c 0
 1604 904.309993965 1519.78053644 991.418073416 1410.5 1031 c 128
 1368.16666667 1046.33333333 1319.33333333 1054 1264 1054 c 0
 1125.106308 1054 994.64260778 1016.57362278 889 970 c 128
 702.603529088 887.825211749 539.234539174 756.172275585 461.5 566.5 c 128
 436.5 505.5 424 440 424 370 c 0
 424 235.726330856 510.017124225 149.237781081 606 104.5 c 128
 645.333333333 86.1666666667 690.666666667 75.3333333333 742 72 c 1
 820.227822697 72 892.049703998 83.532666758 958 104 c 1
 800 346 l 1
EndSplineSet
EndChar

StartChar: r
Encoding: 114 114 78
Width: 1758
Flags: HW
LayerCount: 2
Fore
SplineSet
242 918 m 1
 225.149731947 1069.65241247 224.460281698 1242.16976516 212 1400 c 1
 416 1452 602.5 1493 771.5 1523 c 128
 940.5 1553 1088.66666667 1568 1216 1568 c 0
 1350.06323122 1568 1463.41214917 1552.48484167 1572 1526 c 1
 1679.57583547 1418.42416453 1754.78251775 1288.13153521 1770 1104 c 1
 1751.33333333 1055.33333333 1720 1004.83333333 1676 952.5 c 128
 1564.13234705 819.445291567 1417.34052019 709.758297937 1254 599 c 128
 1156.66666667 533 1045.33333333 462 920 386 c 1
 1572 156 l 1
 1318 -196 l 1
 1074.28334444 -93.6659346818 842.145217129 0.905542991174 604 110 c 1
 500 78 l 1
 487.130588332 -4.36423467272 473.557102213 -86.4756401407 468 -174 c 1
 357.833595496 -149.901099015 186.213763155 -173.264128946 82 -142 c 1
 174.485437282 207.057940708 249.22578361 572.640584307 320 968 c 1
 242 918 l 1
1075 1096 m 0
 950.908444212 1096 836.173252722 1074.65169823 710 1056 c 1
 669.414514544 871.520520653 626.743397688 698.489177456 576 490 c 1
 748.25509808 586.087877841 922.340935729 689.302844992 1066.5 794.5 c 128
 1128.16666667 839.5 1177.16666667 880.5 1213.5 917.5 c 128
 1249.83333333 954.5 1269.33333333 986 1272 1012 c 1
 1272 1068 1206.33333333 1096 1075 1096 c 0
EndSplineSet
EndChar

StartChar: s
Encoding: 115 115 79
Width: 1848
Flags: HW
LayerCount: 2
Fore
SplineSet
1624 1616 m 1
 1660.99497147 1478.59010596 1668.4978866 1305.43581737 1708 1170 c 1
 1544.41076165 1076.71357483 1371.33624021 1004.92259765 1174 944 c 1
 1174 970.482577277 1195.9418841 1107.98837682 1156 1100 c 0
 1042.32258102 1078.68548394 926.074347245 1017.80681962 844 961.5 c 128
 815.333333333 941.833333333 794.666666667 924.333333333 782 909 c 1
 1110.58715802 860.199927027 1524.63480803 873.319525569 1672 643.5 c 128
 1700 599.833333333 1714.66666667 545.333333333 1716 480 c 1
 1716 422.666666667 1698.83333333 366.333333333 1664.5 311 c 128
 1548.67302994 124.327407476 1322.97826551 -3.62595730486 1101 -88.5 c 128
 968.868520361 -139.020859862 808.655331646 -184 645 -184 c 0
 464.034982723 -184 299.027791917 -154.268640091 122 -128 c 1
 228.730676391 -21.2693236086 315.139356174 101.836950698 412 242 c 1
 482.933757068 197.199732378 576.505410896 175 688 175 c 0
 840.375895549 175 979.748438496 211.378664205 1090 257 c 128
 1155.72775169 284.197690353 1217.31574562 317.061005266 1258 361 c 128
 1274.66666667 379 1283 396.333333333 1283 413 c 0
 1283 562.800456192 1040.48591569 564 887 564 c 0
 760.460426194 564 622.736625185 556 495 556 c 0
 411.40560806 556 334.580724581 559.247300062 262 570 c 1
 210 752 l 1
 204.711160912 828.688166777 197.288611597 913.315131843 192 990 c 1
 482.311241312 1194.9255821 835.502129819 1369.42927603 1206 1492 c 1
 1345.99993964 1536.95410906 1479.92594156 1579.63179107 1624 1616 c 1
EndSplineSet
EndChar

StartChar: t
Encoding: 116 116 80
Width: 1514
Flags: HW
LayerCount: 2
Fore
SplineSet
1508 1588 m 1
 1500.74739532 1435.69530166 1466 1268.22579133 1466 1112 c 1
 1295.70022998 1066.96204429 1121.62101875 1031.571375 926 1006 c 1
 792 414 l 1
 744 190 710 -10.6666666667 690 -188 c 1
 606.643813956 -168.386779754 481.150249508 -171.961291633 387 -165.5 c 128
 353 -163.166666667 326.666666667 -159.333333333 308 -154 c 1
 398.367218457 195.808587577 469.950562815 554.42371721 542 942 c 1
 366.023383266 908.602977846 208.706613989 877.41696745 44 838 c 1
 62.8734084549 982.696131487 70.5918255019 1124.82948119 90 1316 c 1
 464.468503791 1387.77312989 832.862121062 1465.29770483 1234 1546 c 1
 1328.37684551 1560.90160719 1415.6051766 1576.26732401 1508 1588 c 1
EndSplineSet
EndChar

StartChar: u
Encoding: 117 117 81
Width: 1713
Flags: HW
LayerCount: 2
Fore
SplineSet
264 1524 m 1
 382.825617922 1500.23487642 512.818575459 1494.53870888 666 1490 c 1
 637.447865492 1382.92949559 594.446362845 1255.6167367 563 1132 c 128
 525.135973169 983.15520487 491 804.487504508 491 619 c 0
 491 502.576282631 513.164554286 398.165745803 578 346.5 c 128
 599.333333333 329.5 626 321 658 321 c 0
 786.609754591 321 875.412152423 373.852720741 946 443 c 128
 978.666666667 475 1008.66666667 516 1036 566 c 1
 1144.89146364 833.124371748 1210.41734162 1166.43594281 1262 1532 c 1
 1297.57722805 1512.59423925 1361.46522582 1504.614084 1414 1497.5 c 128
 1501.74147002 1485.6183426 1609.80077068 1474.78378483 1668.5 1434.5 c 128
 1685.5 1422.83333333 1694 1408 1694 1390 c 0
 1694 904.591926807 1548.89437907 527.613772286 1327.5 264 c 128
 1200.9541744 113.322179746 1047.34638414 -12.8187332525 856.5 -79.5 c 128
 773.5 -108.5 694 -123 618 -123 c 0
 368.841102172 -123 211.853178153 -3.22560429046 140 180 c 128
 113.333333333 248 100 327.666666667 100 419 c 0
 100 587.434196747 125.043278665 760.616906482 151 922 c 128
 182.782243518 1119.60264448 224.497200986 1329.03457261 264 1524 c 1
EndSplineSet
EndChar

StartChar: v
Encoding: 118 118 82
Width: 1560
Flags: HW
LayerCount: 2
Fore
SplineSet
452 -10 m 1
 441.944208593 15.1394785178 440.060931516 34.7258081778 434 62 c 2
 90 1556 l 1
 518 1522 l 1
 555.461106549 1202.24269767 588.538240169 895.762878555 626 576 c 1
 1192 1586 l 1
 1588 1372 l 1
 508 -314 l 1
 452 -10 l 1
EndSplineSet
EndChar

StartChar: w
Encoding: 119 119 83
Width: 2216
Flags: HW
LayerCount: 2
Fore
SplineSet
1929 1545 m 256
 1981.91088797 1545 2040.09127192 1547 2093 1547 c 0
 2138.23520272 1547 2186.021887 1546.25706313 2222 1540 c 1
 1858 -224 l 1
 1714.08845701 -192.313054755 1582.07579077 -162.101221416 1446 -124 c 1
 1411.51570352 -62.9893216156 1377.83276553 4.33446893901 1346 68 c 1
 1042 492 l 1
 296 -258 l 1
 36 -64 l 1
 182 608 l 2
 244.934169129 900.885940949 293.128222231 1182.32870788 334 1476 c 1
 368.664601103 1469.69734525 412.966627584 1469 457 1469 c 256
 507.244221304 1469 562.757938582 1471 613 1471 c 256
 657.121352703 1471 701.246765262 1470.31876995 736 1464 c 1
 498 502 l 1
 1196 1306 l 1
 1622 436 l 1
 1634 500 l 1
 1701.98499042 822.928704516 1748.43688543 1164.70035281 1796 1552 c 1
 1833.2464054 1545.79226577 1882.5128723 1545 1929 1545 c 256
EndSplineSet
EndChar

StartChar: x
Encoding: 120 120 84
Width: 1784
Flags: HW
LayerCount: 2
Fore
SplineSet
1778 1300 m 1
 1548.43654923 1070.43654923 1303.26754275 807.267542751 1074 578 c 1
 1187.20108564 375.18138823 1306.99502042 179.260282392 1438 -32 c 1
 1392.93690453 -56.0336509175 1351.96789453 -80.6880703118 1308 -110 c 1
 1206 -190 l 1
 1155.73062 -206.756459999 1113.88357547 -224.940633125 1062 -248 c 1
 1043.93274891 -223.157529758 1025.50618942 -196.784593595 1005 -165 c 2
 866 43.5 l 130
 823.132635908 107.801046138 776.209873998 175.580252005 742 244 c 1
 494 20 l 1
 397.571984182 -69.2851998313 315.893046085 -148.23262256 234 -238 c 1
 173.330238644 -169.057089368 76.0079159299 -101.806629591 4 -41.5 c 128
 -22.6666666667 -19.1666666667 -43.3333333333 0.666666666667 -58 18 c 1
 158.031901419 214.052072386 353.073652946 397.97768721 552 594 c 1
 504 682 l 1
 386.932878754 921.455475275 263.926363474 1183.02150027 130 1404 c 1
 276.465173596 1465.47920867 405.269309809 1530.51221752 560 1614 c 1
 576 1582 597 1535 623 1473 c 2
 706 1276 l 2
 746.298794681 1180.05048886 790.252493611 1077.49501278 835 988 c 128
 848.333333333 961.333333333 860.666666667 939.333333333 872 922 c 1
 1033.6741868 1096.1106627 1203.67673715 1299.62107089 1364 1477 c 128
 1395.33333333 1511.66666667 1421.33333333 1539.33333333 1442 1560 c 1
 1473.07259503 1523.27784224 1513.47427213 1489.51664744 1556 1462 c 1
 1666 1400 l 1
 1702.19761594 1370.38376878 1739.4226699 1334.03882067 1778 1300 c 1
EndSplineSet
EndChar

StartChar: y
Encoding: 121 121 85
Width: 1754
Flags: HW
LayerCount: 2
Fore
SplineSet
78 1362 m 1
 217.215557989 1427.94421168 349.828164276 1500.97805494 496 1590 c 1
 589.845998413 1394.48750331 698.803833079 1177.81988603 802.5 989 c 128
 824.833333333 948.333333333 844.666666667 914.666666667 862 888 c 1
 1055.45581424 1107.24992281 1244.8003692 1367.04041842 1438 1586 c 1
 1462.66666667 1558 1493.33333333 1534.66666667 1530 1516 c 1
 1662 1434 l 1
 1702.89211555 1403.33091334 1736.3897036 1374.72446012 1780 1338 c 1
 1164 696 l 1
 1030 566 l 1
 792.835806125 288.681021977 582.681536413 18.3974189386 374 -268 c 1
 333.438541431 -234.198784526 275.814929622 -203.787590834 223.5 -173.5 c 128
 155.53548778 -134.152124504 83.9314420846 -89.5451536677 22 -40 c 1
 212.507836899 158.731196765 394.578810588 352.902574222 584 558 c 1
 415.760333003 840.086058198 253.142001106 1101.4228764 78 1362 c 1
EndSplineSet
EndChar

StartChar: z
Encoding: 122 122 86
Width: 2064
Flags: HW
LayerCount: 2
Fore
SplineSet
154 -238 m 1
 100.167718176 -99.3818743029 47.8348328573 21.3753053924 -6 160 c 1
 1270 1042 l 1
 928.852438682 992.89542678 612.686553636 938.123664237 302 866 c 1
 308 1396 l 1
 720.295610696 1460.75155424 1129.19330621 1520.7271067 1556 1568 c 0
 1659.57925328 1579.9056613 1757.38441261 1587.33565512 1860 1592 c 1
 1908 1326 l 1
 1964 1220 l 1
 2014 1094 l 1
 698 218 l 1
 1740 364 l 1
 1774 12 l 1
 154 -238 l 1
EndSplineSet
EndChar

StartChar: copyright
Encoding: 169 169 88
Width: 2014
Flags: HW
LayerCount: 2
Fore
SplineSet
66 554 m 1
 71.6778939435 593.745257604 77.611789918 623.641264713 88 660 c 1
 131.289843364 856.247289915 226.911445025 1030.18789026 336.5 1171 c 128
 504.331773539 1386.64976488 736.815722066 1570.9203406 1029 1655.5 c 128
 1117.66666667 1681.16666667 1206.66666667 1694 1296 1694 c 0
 1643.00767511 1694 1815.36748554 1491.58103729 1899.5 1228.5 c 128
 1938.5768451 1106.30732565 1959.71867322 961.273546295 1964 810 c 1
 1926.65981748 598.884352675 1832.82340147 417.459430514 1721 270 c 128
 1603.31505037 114.811055429 1448.85934977 -22.2607602073 1276.5 -119 c 128
 1130.95073924 -200.691679954 954.104386725 -268 746 -268 c 0
 237.124196304 -268 116.89557769 95.9398007872 66 554 c 1
1740 976 m 0
 1740 1199.40743233 1563.43287985 1285 1325 1285 c 0
 1161.31244677 1285 1015.58178415 1225.90611208 897.5 1160 c 128
 679.348071156 1038.2407839 493.416171837 850.644472551 403 602 c 128
 373.666666667 521.333333333 359 436.666666667 359 348 c 0
 359 72.5797148084 511.264801438 -39 796 -39 c 0
 948.987573268 -39 1087.97560518 23.4427382939 1199 89 c 128
 1421.04541222 220.112529119 1605.81510774 424.42720971 1695 690 c 128
 1725 779.333333333 1740 874.666666667 1740 976 c 0
1124 1046 m 256
 1315.01324172 1046 1422 990.81128293 1422 799 c 0
 1422 697.636463932 1404.44500143 654.130322827 1316.5 639 c 128
 1285.5 633.666666667 1243 631 1189 631 c 0
 1175 631 1175 631 1160.5 631 c 128
 1150.83333333 631 1140.66666667 631.333333333 1130 632 c 1
 1136.66666667 667.333333333 1140 697.666666667 1140 723 c 0
 1140 743 1138 758.666666667 1134 770 c 1
 1075.05253499 770 1018.7299148 745.914667598 973.5 722 c 128
 886.36637538 675.929347902 804.504373821 606.971295448 763.5 515.5 c 128
 750.5 486.5 744 456.666666667 744 426 c 0
 744 358.666666667 784 325 864 325 c 0
 928 325 988.833333333 343.666666667 1046.5 381 c 128
 1104.16666667 418.333333333 1158.66666667 472.666666667 1210 544 c 1
 1442 482 l 1
 1345.71655513 344.981251534 1206.74474986 235.425294874 1024.5 188.5 c 128
 968.833333333 174.166666667 911.666666667 167 853 167 c 0
 652.500612839 167 561 287.042822726 561 491 c 0
 561 582.043859747 603.186765903 664.117422718 644 729 c 128
 721.887644753 852.821383966 839.330626244 963.938573847 984 1019.5 c 128
 1030 1037.16666667 1076.66666667 1046 1124 1046 c 256
EndSplineSet
EndChar

StartChar: registered
Encoding: 174 174 89
Width: 2016
Flags: HW
LayerCount: 2
Fore
SplineSet
1108 1722 m 0
 1242.66666667 1722 1358.66666667 1683.33333333 1456 1606 c 1
 1680 868 l 1
 1672.60185824 838.407432966 1668.86133916 811.230021845 1660 778 c 0
 1591.38417972 514.972688917 1463.60674038 309.108801671 1290 138 c 0
 1086.66666667 -63.3333333333 866.666666667 -164 630 -164 c 0
 476 -164 346.666666667 -114 242 -14 c 1
 50 622 l 1
 91.5533041072 967.782852035 240.681890098 1215.09256579 448 1420 c 0
 651.333333333 1621.33333333 871.333333333 1722 1108 1722 c 0
372 315 m 0
 372 157.10042928 438.827845406 72 594 72 c 0
 714.666666667 72 850.666666667 136 1002 264 c 1
 818 290 l 1
 806 228 l 1
 658 294 l 1
 712 590 l 1
 698.617660866 586.654415216 686.236650535 584.319521505 670 582 c 1
 732 866 l 1
 831.067140058 886.239523238 918.717099526 904 1018 904 c 0
 1059.33333333 904 1100 900 1140 892 c 1
 1188 630 l 1
 1136.66666667 564.666666667 1059.33333333 500.666666667 956 438 c 1
 1144 410 l 1
 1218.66666667 505.333333333 1273.33333333 594.166666667 1308 676.5 c 128
 1342.66666667 758.833333333 1360 837.666666667 1360 913 c 0
 1360 1075 1286 1156 1138 1156 c 0
 1018.98853871 1156 911.124473063 1093.77222849 827 1036 c 128
 710.360532948 955.898197325 600.64951657 844.217478647 518 724 c 0
 468 651.333333333 431.166666667 580.833333333 407.5 512.5 c 128
 383.833333333 444.166666667 372 378.333333333 372 315 c 0
860 520 m 1
 900.086323504 534.768645501 940.621755418 557.581245286 965 587.5 c 128
 972.333333333 596.5 976 605.333333333 976 614 c 0
 976 624.666666667 963.333333333 630 938 630 c 0
 922 630 902 628 878 624 c 1
 860 520 l 1
EndSplineSet
EndChar

StartChar: quoteleft
Encoding: 8216 8216 93
Width: 754
Flags: HW
LayerCount: 2
Fore
SplineSet
768 992 m 1
 655.33142303 971.135448709 553.875505786 924.345420139 442 872 c 1
 368.920712106 986.65888273 304.487079371 1101.37357701 256 1234 c 1
 204 1312 l 1
 201.333333333 1328 200 1344.66666667 200 1362 c 128
 200 1379.33333333 199.333333333 1396 198 1412 c 1
 175.1949944 1485.48279582 156.477177655 1561.22822345 148 1646 c 1
 628 1660 l 1
 621.756265855 1620.04010147 618 1578.43440745 618 1534 c 0
 618 1316.69544457 680.972411111 1151.55057963 768 992 c 1
EndSplineSet
EndChar

StartChar: quoteright
Encoding: 8217 8217 94
Width: 840
Flags: HW
LayerCount: 2
Fore
SplineSet
66 1010 m 1
 130.967930521 1099.95559611 189.254690262 1193.64200936 238 1294 c 1
 256 1294 l 1
 321.333333333 1416 366 1538 390 1660 c 1
 872 1646 l 1
 787.454179796 1442.0953748 665.127782145 1252.13919946 541 1077 c 128
 492.333333333 1008.33333333 441.333333333 940 388 872 c 1
 280.188498366 905.823216199 182.433438347 953.862449368 66 1010 c 1
EndSplineSet
EndChar

StartChar: quotedblleft
Encoding: 8220 8220 95
Width: 1364
Flags: HW
LayerCount: 2
Fore
SplineSet
1216 1656 m 1
 1211.12952952 1629.21241236 1209.00056964 1603.0051268 1206 1576 c 1
 1206 1529.97416151 1214.67862953 1502.97308356 1232 1464 c 1
 1239.33333333 1309.33333333 1280 1154.66666667 1354 1000 c 1
 1006 872 l 1
 906.12486312 1056.25240769 819.571005556 1253.12836351 766 1473.5 c 128
 751.333333333 1533.83333333 740.666666667 1590.66666667 734 1644 c 1
 1216 1656 l 1
606 1612 m 1
 603.505729048 1584.56301953 599 1556.64044936 599 1528 c 0
 599 1500.66666667 607.333333333 1468 624 1430 c 1
 628 1272 668.666666667 1114.66666667 746 958 c 1
 396 828 l 1
 327.968287268 957.764192804 265.568868649 1081.05054836 214 1220 c 1
 171.531549703 1343.86631337 141.759049313 1462.89627098 126 1600 c 1
 606 1612 l 1
EndSplineSet
EndChar

StartChar: quotedblright
Encoding: 8221 8221 96
Width: 1438
Flags: HW
LayerCount: 2
Fore
SplineSet
856 1248 m 1
 918.609705782 1359.71535738 961.265978293 1473.87422118 988 1612 c 1
 1470 1600 l 1
 1385.56558616 1396.36406074 1266.12020177 1209.12850386 1142 1034 c 128
 1093.33333333 965.333333333 1042 896.666666667 988 828 c 1
 880.412721085 861.103778128 782.033051881 909.642173894 666 964 c 1
 731.524173063 1054.72577809 791.595759829 1145.49690317 840 1248 c 1
 856 1248 l 1
378 872 m 1
 267.549340896 903.064247873 165.617156807 952.746149209 58 1006 c 1
 126.666666667 1104.66666667 183.333333333 1200 228 1292 c 1
 246 1292 l 1
 313.333333333 1415.33333333 357.333333333 1536.66666667 378 1656 c 1
 864 1644 l 1
 740.156306616 1361.91158729 562.14638385 1102.18297981 378 872 c 1
EndSplineSet
EndChar

StartChar: ellipsis
Encoding: 8230 8230 97
Width: 1918
Flags: HW
LayerCount: 2
Fore
SplineSet
1510 -11 m 0
 1385.80162158 -11 1286.55133989 47.7712036452 1254 140 c 1
 1258.66666667 226 1286.66666667 304.666666667 1338 376 c 1
 1367.89566877 385.965222925 1398.0386816 391 1436 391 c 0
 1565.49633217 391 1666.13003062 338.399143627 1700 242 c 1
 1692.66666667 158.666666667 1668.66666667 82.6666666667 1628 14 c 1
 1592.66666667 -2.66666666667 1553.33333333 -11 1510 -11 c 0
965 -2 m 0
 833.443041335 -2 719.879483526 34.845910953 692 138 c 1
 700 224 729.333333333 303.333333333 780 376 c 1
 809.385861378 379.832938441 838.710700638 383 871 383 c 0
 1000.96379598 383 1113.79915295 342.548534711 1142 240 c 1
 1131.33333333 156 1107.33333333 79.3333333333 1070 10 c 1
 1034.66666667 2 999.666666667 -2 965 -2 c 0
396 -7 m 0
 266.160221277 -7 165.962108222 39.3386150614 132 136 c 1
 140 223.333333333 168.666666667 302.666666667 218 374 c 1
 244.858843709 378.028826556 271.135458988 381 302 381 c 0
 440.865524148 381 545.852792394 341.068331095 580 236 c 1
 574.291624706 146.09308912 544.87404026 74.7660747686 510 10 c 1
 476.061956234 -0.0557166713354 438.497195978 -7 396 -7 c 0
EndSplineSet
EndChar

